<?xml version="1.0" encoding="iso-8859-1"?>
<!-- Generator: Adobe Illustrator 18.1.1, SVG Export Plug-In . SVG Version: 6.00 Build 0)  -->
<svg version="1.1" id="Capa_1" xmlns="http://www.w3.org/2000/svg" xmlns:xlink="http://www.w3.org/1999/xlink" x="0px" y="0px"
	 viewBox="0 0 478.195 478.195" style="enable-background:new 0 0 478.195 478.195;" xml:space="preserve">
<g>
	<g>
		<path d="M123.827,269.415l-19.286-45.724l-0.279-0.478l-0.339-0.697c-0.239-0.398-0.737-1.195-1.674-1.195
			c-0.916,0-1.454,0.797-1.654,1.195c-0.199,0.219-0.279,0.438-0.379,0.697l-0.239,0.498l-19.346,45.705
			c-0.398,0.936-0.319,2.889,1.713,2.889h39.827C123.906,272.304,124.504,270.849,123.827,269.415z"/>
		<path d="M224.52,53.603C87.068,47.188-5.577,122.459,0.261,217.155c1.454,23.211,12.891,50.486,25.323,66.824
			c0,0,3.088,4.722,9.543,11.695l2.55-5.658c18.848-42.019,58.017-129.403,58.715-130.758c0.359-0.737,0.737-1.574,1.195-2.311
			c0.418-0.638,0.837-1.195,1.355-1.713c0.797-0.877,1.873-1.554,3.407-1.554c3.168,0,4.562,2.49,5.917,5.439
			c0.139,0.418,67.66,151.399,68.457,153.272c0.159,0.199,0.379,0.618,0.677,1.434c0.239,0.578,0.498,1.395,0.657,2.371
			c0.339,1.893,0.518,4.323-0.438,7.192c-3.208,10.002-12.811,11.097-15.58,11.038c-11.217-0.438-15.68-12.432-15.68-12.432
			s-5.379-13.169-6.754-16.198c-1.175-2.69-2.132-3.686-4.224-3.686H68.937c-2.112,0-2.909,0.996-3.746,2.929
			c-1.096,2.57-4.682,11.137-4.682,11.137l-0.538,1.355c54.81,37.954,131.655,36.878,142.872,57.021
			c10.101,18.27-11.356,42.756-71.804,28.331c-2.391-0.558-3.427-0.558-3.646,0.418c-0.06,0.837,0.737,1.454,2.63,2.072
			c24.586,9.782,60.787,20.063,119.422,19.585c136.755-0.857,224.518-75.769,228.583-160.763
			C483.566,147.662,351.214,59.481,224.52,53.603z M228.744,316.175c0,11.715-6.495,16.815-17.433,16.815
			c-10.838,0-17.314-5.061-17.314-16.815V171.869c0-11.755,6.495-16.815,17.314-16.815c10.958,0,17.433,5.061,17.433,16.815V316.175
			z M414.172,332.971c-10.818,0-17.274-5.081-17.274-16.815v-67.242l-33.611,68.597c-3.307,5.618-9.344,11.177-16.935,10.898
			c-6.993,0.319-12.592-5.638-15.401-10.818l-33.93-68.955v67.541c0,11.715-6.236,16.815-17.254,16.815
			c-10.858,0-17.493-5.061-17.493-16.815V171.869c0-11.755,6.117-16.815,16.975-16.815c5.957,0,10.32,1.614,13.389,4.483
			c1.514,1.614,2.949,3.746,4.323,6.515l49.45,112.15l50.526-112.15c1.355-2.769,2.829-4.901,4.543-6.515
			c2.889-2.969,7.232-4.483,13.11-4.483c10.938,0,17.214,5.061,17.214,16.815v144.306
			C431.904,327.85,425.23,332.971,414.172,332.971z"/>
	</g>
</g>
<g>
</g>
<g>
</g>
<g>
</g>
<g>
</g>
<g>
</g>
<g>
</g>
<g>
</g>
<g>
</g>
<g>
</g>
<g>
</g>
<g>
</g>
<g>
</g>
<g>
</g>
<g>
</g>
<g>
</g>
</svg>
