<?xml version="1.0" encoding="iso-8859-1"?>
<!-- Generator: Adobe Illustrator 18.1.1, SVG Export Plug-In . SVG Version: 6.00 Build 0)  -->
<svg version="1.1" id="Capa_1" xmlns="http://www.w3.org/2000/svg" xmlns:xlink="http://www.w3.org/1999/xlink" x="0px" y="0px"
	 viewBox="0 0 478.165 478.165" style="enable-background:new 0 0 478.165 478.165;" xml:space="preserve">
<g>
	<path id="Arto" d="M311.127,478.165L311.127,478.165c-40.664,0-62.839-27.594-72.442-44.29
		c-10.739-17.851-23.111-20.262-33.651-20.262c-8.826,0-18.469,1.933-28.889,3.905c-9.364,1.873-19.027,4.044-29.208,4.562
		l-1.016,0.08l-1.136-0.12c-50.606-9.304-82.862-28.989-95.932-58.834c-19.127-43.772,10.958-91.369,12.313-93.322L265.263,34.109
		C296.085,11.476,323.141,0,345.515,0c47.717,0,63.038,51.363,64.512,78.479c0,0.677-0.916,40.066-1.833,86.129
		c-0.598,39.947,12.173,51.861,12.412,52.04c7.671,4.543,13.15,12.193,14.624,21.258c3.108,18.808-11.795,36.779-13.628,38.951
		l-2.371,2.869l-4.025,0.379c-5.698,3.746-9.523,31.34-10.739,81.926c-0.08,8.348-0.199,15.202-0.558,18.927
		c-0.936,50.028-18.21,69.095-31.16,78.917C350.197,472.128,329.736,478.165,311.127,478.165z M204.995,395.861
		c21.717,0,37.357,9.045,49.131,29.108c7.85,13.13,25.502,35.364,56.902,35.364c15.68,0,33.073-5.18,51.841-15.68
		c8.826-6.694,22.255-21.677,22.912-64.911c0.398-4.244,0.418-10.36,0.737-17.911c1.036-49.988,3.706-91.987,22.952-98.861
		c3.706-5.061,9.264-14.544,7.89-22.215c-0.418-2.391-1.713-6.117-7.431-9.603c-2.889-2.231-20.681-17.513-19.744-66.764
		c0.677-46.203,1.614-85.492,1.614-85.492c-0.06-1.873-3.845-60.926-46.382-60.926c-18.19,0-41.401,10.061-68.597,30.104
		L75.492,280.603l0,0c0.199,0-25.303,41.062-10.081,75.63c10.5,23.749,37.855,39.807,81.487,48.095
		c8.428-0.777,17.234-2.63,25.661-4.184C183.278,397.933,194.296,395.861,204.995,395.861z M363.327,247.43
		c-15.54,0.817-29.387,0.817-29.387,0.817V114.879c0,0-4.323-35.922-38.831-11.177L113.048,317.541c0,0-12.014,17.852,0,21.438
		c0,0,12.094,9.344,22.414,5.14c8.647-7.81,47.518-60.089,146.697-71.366c-0.677,51.761,0.877,124.223,0.877,124.223
		s27.554,29.009,54.451,0c0-29.586-0.897-124.383-0.897-135.898c1.873,0.458,8.986-1.893,27.594-4.284
		C364.263,256.834,378.867,252.59,363.327,247.43z M286.601,248.267c0,0-41.501,3.427-57.997,4.303
		c-16.337,0.638-4.244-7.671-4.244-7.671l62.241-69.314V248.267L286.601,248.267z"/>
</g>
<g>
</g>
<g>
</g>
<g>
</g>
<g>
</g>
<g>
</g>
<g>
</g>
<g>
</g>
<g>
</g>
<g>
</g>
<g>
</g>
<g>
</g>
<g>
</g>
<g>
</g>
<g>
</g>
<g>
</g>
</svg>
