<?xml version="1.0" encoding="iso-8859-1"?>
<!-- Generator: Adobe Illustrator 18.1.1, SVG Export Plug-In . SVG Version: 6.00 Build 0)  -->
<svg version="1.1" id="Capa_1" xmlns="http://www.w3.org/2000/svg" xmlns:xlink="http://www.w3.org/1999/xlink" x="0px" y="0px"
	 viewBox="0 0 478.185 478.185" style="enable-background:new 0 0 478.185 478.185;" xml:space="preserve">
<g>
	<path id="Baidu" d="M127.525,178.415c2.949,40.644-19.186,75.291-49.151,77.403c-30.025,2.072-56.702-29.108-59.551-69.732
		c-2.949-40.624,19.206-75.271,49.251-77.503C98.078,106.511,124.675,137.751,127.525,178.415z M334.391,9.882
		c-29.048-7.471-60.827,18.609-70.988,58.097c-9.962,39.469,5.499,77.522,34.547,84.954c29.327,7.471,61.046-18.469,70.988-57.958
		C382.087,43.493,341.404,11.655,334.391,9.882z M402.928,143.091c-30.782,0.418-55.128,29.527-54.471,74.773
		c0.737,45.366,26.1,65.947,56.822,65.449c30.563-0.418,55.069-21.876,54.331-67.083
		C458.654,157.396,410.14,142.911,402.928,143.091z M180.501,0c-29.228,0-52.977,32.675-52.977,73.06s23.729,73.06,52.937,73.06
		c29.188,0,52.937-32.655,52.937-73.06C233.438,32.675,209.669,0,180.501,0z M173.667,226.949
		c-16.835,24.247-35.942,47.976-73.06,78.917c-37.118,30.862-52.937,52.259-52.937,83.938c0,31.439,17.991,84.057,69.254,84.057
		c51.144,0,75.929-11.496,116.353-11.496c40.684,0,67.481,15.819,118.744,15.819c51.064,0,72.522-48.534,72.522-80.013
		c0-31.559-8.866-49.39-49.889-85.332c-26.259-23.191-48.574-41.959-83.34-90.353c-17.294-24.008-37.257-27.036-58.077-27.036
		C212.478,195.43,190.563,202.682,173.667,226.949z"/>
</g>
<g>
</g>
<g>
</g>
<g>
</g>
<g>
</g>
<g>
</g>
<g>
</g>
<g>
</g>
<g>
</g>
<g>
</g>
<g>
</g>
<g>
</g>
<g>
</g>
<g>
</g>
<g>
</g>
<g>
</g>
</svg>
