<?xml version="1.0" encoding="iso-8859-1"?>
<!-- Generator: Adobe Illustrator 18.1.1, SVG Export Plug-In . SVG Version: 6.00 Build 0)  -->
<svg version="1.1" id="Capa_1" xmlns="http://www.w3.org/2000/svg" xmlns:xlink="http://www.w3.org/1999/xlink" x="0px" y="0px"
	 viewBox="0 0 478.193 478.193" style="enable-background:new 0 0 478.193 478.193;" xml:space="preserve">
<g>
	<path id="Basecamp" d="M2.012,346.152c3.367,5.061,7.013,9.743,10.858,14.405c7.79,9.005,16.477,17.333,25.901,24.705
		c20.023,15.56,43.214,26.797,67.242,34.627c27.913,9.264,57.001,14.026,86.149,16.397c33.77,2.829,67.999,2.809,101.63-0.638
		c31.26-3.267,62.48-9.763,91.588-21.438c26.04-10.3,49.849-25.124,70.709-43.692c5.359-4.802,10.48-9.902,14.903-15.66
		c3.546-5.021,6.515-10.54,7.053-16.716c0.598-7.372-0.717-14.544-2.112-21.856c-1.514-7.93-3.686-15.501-5.638-23.39
		c-0.697-2.849-1.415-5.638-2.052-8.487c-7.69-33.631-19.406-66.505-35.245-97.127c-13.309-25.96-30.005-50.466-49.191-72.621
		c-17.891-20.561-38.831-38.552-62.918-51.642c-12.731-6.973-26.239-12.492-39.927-16.676c-7.73-2.212-15.281-4.064-22.832-5.618
		c-1.913-0.379-4.044-0.837-6.037-0.837c-2.57,0-5.1,0-7.631,0c-4.901,0-9.643,0-14.564,0c-2.271,0-4.562-0.12-6.734,0.199
		c-2.072,0.259-4.164,0.498-6.216,0.857c-3.845,0.618-7.75,1.415-11.556,2.251c-7.671,1.913-15.182,4.303-22.414,7.153
		c-14.664,5.758-28.491,13.409-41.381,22.294c-25.163,17.353-47.099,39.488-65.548,63.935
		c-19.525,25.901-35.125,54.63-47.179,84.775C16.019,253.468,7.212,286.84,1.753,320.889C1.016,325.432,0,329.815,0,334.377
		c0,2.331,0,4.702,0,7.053c0,1.215,0,1.793,0.657,2.769C1.116,344.777,1.594,345.594,2.012,346.152z M33.193,325.073
		c0.398-2.271,0.857-4.284,1.395-6.615c1.016-4.204,2.172-8.328,3.586-12.492c5.399-15.52,13.428-30.045,22.115-44.051
		c4.363-6.993,8.786-13.927,13.169-20.9c4.463-7.013,9.025-14.006,14.225-20.581c8.288-10.699,18.569-22.215,31.858-26.578
		c18.688-5.937,32.754,13.508,43.613,25.602c6.136,6.774,12.831,13.986,21.238,17.851c3.945,1.813,8.169,2.73,12.452,2.49
		c6.256-0.438,11.874-4.802,16.537-8.627c12.811-10.54,23.171-24.008,33.173-37.277c10.799-14.385,21.458-29.108,33.99-42.357
		c5.12-5.379,10.4-12.572,17.851-14.943c3.267-0.996,6.993-0.677,10.261,0.737c1.574,0.837,3.248,1.913,4.642,3.248
		c1.494,1.554,3.387,2.789,5.18,4.025c13.428,10.161,25.681,21.617,37.396,33.571c10.241,10.48,19.684,21.478,28.989,32.714
		c9.185,10.998,17.732,22.334,25.243,34.488c9.105,14.783,16.756,30.543,25.203,45.605c7.75,13.887,15.421,29.845,7.87,45.525
		c-0.418,0.697-0.897,1.574-1.355,2.411c-13.628,22.972-38.273,37.396-62.659,46.82c-29.347,11.257-60.747,16.796-91.947,18.947
		c-32.196,2.132-64.911,2.072-97.127-0.857c-29.108-2.789-58.416-7.91-85.731-18.589c-22.872-8.806-44.967-21.896-60.229-41.501
		c-3.606-4.443-6.754-9.404-9.464-14.524c-0.319-0.558-0.598-1.335-0.936-1.913C33.193,326.488,32.973,326.089,33.193,325.073z"/>
</g>
<g>
</g>
<g>
</g>
<g>
</g>
<g>
</g>
<g>
</g>
<g>
</g>
<g>
</g>
<g>
</g>
<g>
</g>
<g>
</g>
<g>
</g>
<g>
</g>
<g>
</g>
<g>
</g>
<g>
</g>
</svg>
