<?xml version="1.0" encoding="iso-8859-1"?>
<!-- Generator: Adobe Illustrator 18.1.1, SVG Export Plug-In . SVG Version: 6.00 Build 0)  -->
<svg version="1.1" id="Capa_1" xmlns="http://www.w3.org/2000/svg" xmlns:xlink="http://www.w3.org/1999/xlink" x="0px" y="0px"
	 viewBox="0 0 478.165 478.165" style="enable-background:new 0 0 478.165 478.165;" xml:space="preserve">
<g>
	<path id="Bing_3_" d="M0,31.937v255.26h0.418c3.507,88.281,108.862,159.129,238.664,159.129
		c132.093,0,239.082-73.358,239.082-163.751c0-90.234-106.989-163.512-239.082-163.512c-57.718,0-110.735,14.026-152.176,37.377
		V31.838H0V31.937z M239.082,173.673c84.057,0,152.196,48.813,152.196,108.962c0,60.189-68.138,109.141-152.196,109.141
		c-84.037,0-152.176-48.892-152.176-109.141C86.906,222.486,155.045,173.673,239.082,173.673z M138.469,282.635
		c0-39.807,45.067-72.024,100.614-72.024c55.567,0,100.494,32.216,100.494,72.024c0,39.967-44.928,72.143-100.494,72.143
		C183.536,354.858,138.469,322.582,138.469,282.635z"/>
</g>
<g>
</g>
<g>
</g>
<g>
</g>
<g>
</g>
<g>
</g>
<g>
</g>
<g>
</g>
<g>
</g>
<g>
</g>
<g>
</g>
<g>
</g>
<g>
</g>
<g>
</g>
<g>
</g>
<g>
</g>
</svg>
