<?xml version="1.0" encoding="iso-8859-1"?>
<!-- Generator: Adobe Illustrator 18.1.1, SVG Export Plug-In . SVG Version: 6.00 Build 0)  -->
<svg version="1.1" id="Capa_1" xmlns="http://www.w3.org/2000/svg" xmlns:xlink="http://www.w3.org/1999/xlink" x="0px" y="0px"
	 viewBox="0 0 478.185 478.185" style="enable-background:new 0 0 478.185 478.185;" xml:space="preserve">
<g>
	<path id="Bnter" d="M37.636,373.078h17.951c0.916,6.535,1.893,24.884-9.125,43.971c0,0,50.626-2.371,60.926-43.971h333.062
		c20.88,0,37.735-16.875,37.735-37.775V98.831c0-20.82-16.855-37.695-37.735-37.695H37.636C16.835,61.135,0,78.011,0,98.831v236.492
		C0,356.243,16.835,373.078,37.636,373.078z M400.682,242.858c9.802,0,17.832,8.009,17.832,17.832
		c0,10.121-8.009,18.111-17.832,18.111c-9.842,0-17.851-7.989-17.851-18.111C382.87,250.887,390.84,242.858,400.682,242.858z
		 M293.613,297.448c0.06,1.295,0.08,2.351,0.08,3.666c0,24.904-20.163,45.286-45.226,45.286c-19.943,0-36.938-13.07-42.935-31.18
		L293.613,297.448z M79.395,242.858c9.842,0,17.911,8.009,17.911,17.832c0,10.121-8.069,18.111-17.911,18.111
		s-17.951-7.989-17.951-18.111C61.464,250.887,69.553,242.858,79.395,242.858z"/>
</g>
<g>
</g>
<g>
</g>
<g>
</g>
<g>
</g>
<g>
</g>
<g>
</g>
<g>
</g>
<g>
</g>
<g>
</g>
<g>
</g>
<g>
</g>
<g>
</g>
<g>
</g>
<g>
</g>
<g>
</g>
</svg>
