<?xml version="1.0" encoding="iso-8859-1"?>
<!-- Generator: Adobe Illustrator 18.1.1, SVG Export Plug-In . SVG Version: 6.00 Build 0)  -->
<svg version="1.1" id="Capa_1" xmlns="http://www.w3.org/2000/svg" xmlns:xlink="http://www.w3.org/1999/xlink" x="0px" y="0px"
	 viewBox="0 0 478.165 478.165" style="enable-background:new 0 0 478.165 478.165;" xml:space="preserve">
<g>
	<path id="Delicious_3_" d="M459.437,145.98c-18.19-42.856-48.514-79.375-86.707-105.136c-19.127-12.871-40.166-23.111-62.62-30.124
		C287.676,3.746,263.827,0,239.102,0c-32.954,0-64.453,6.714-92.983,18.848c-42.975,18.091-79.515,48.394-105.256,86.488
		c-12.871,19.107-23.111,40.146-30.104,62.719C3.746,190.489,0,214.337,0,239.082c0,33.053,6.734,64.453,18.848,93.003
		c18.071,42.935,48.414,79.355,86.508,105.336c19.127,12.771,40.126,22.952,62.679,30.005c22.474,7.013,46.322,10.739,71.067,10.739
		c33.033,0,64.433-6.635,93.003-18.708c42.915-18.17,79.375-48.534,105.336-86.727c12.771-19.127,22.972-40.166,29.985-62.62
		c7.013-22.434,10.739-46.302,10.739-71.027C478.185,206.149,471.57,174.65,459.437,145.98z M429.611,319.494
		c-15.779,37.197-41.959,68.656-75.072,91.011c-16.417,11.157-34.627,20.023-53.933,26.06c-19.465,6.057-40.086,9.324-61.524,9.344
		l0,0V239.361H32.396v-0.279c0-28.53,5.678-55.746,16.198-80.372c15.64-37.118,41.959-68.816,74.932-91.051
		c16.556-11.157,34.727-19.983,54.152-26.04c19.386-5.957,39.987-9.225,61.444-9.225v206.687h206.786
		C445.889,267.613,439.971,294.729,429.611,319.494z"/>
</g>
<g>
</g>
<g>
</g>
<g>
</g>
<g>
</g>
<g>
</g>
<g>
</g>
<g>
</g>
<g>
</g>
<g>
</g>
<g>
</g>
<g>
</g>
<g>
</g>
<g>
</g>
<g>
</g>
<g>
</g>
</svg>
