<?xml version="1.0" encoding="iso-8859-1"?>
<!-- Generator: Adobe Illustrator 18.1.1, SVG Export Plug-In . SVG Version: 6.00 Build 0)  -->
<svg version="1.1" id="Capa_1" xmlns="http://www.w3.org/2000/svg" xmlns:xlink="http://www.w3.org/1999/xlink" x="0px" y="0px"
	 viewBox="0 0 478.165 478.165" style="enable-background:new 0 0 478.165 478.165;" xml:space="preserve">
<g>
	<path id="DesignFloat_3_" d="M273.112,119.561v-46.78c63.616,14.704,109.739,58.615,124.303,127.57h-46.641
		C338.899,157.854,310.15,131.695,273.112,119.561z M204.037,119.521V72.801c-74.454,14.704-113.484,58.615-128.148,127.57h46.661
		C134.544,157.854,166.76,131.695,204.037,119.521z M122.55,264.246H75.889c14.704,79.535,53.694,116.732,128.148,131.336v-46.78
		C166.76,336.708,134.544,301.284,122.55,264.246z M448.16,234.161c0,117.33-94.716,212.265-211.448,212.265
		S25.383,351.511,25.383,234.161c0-117.23,94.597-212.245,211.309-212.245C353.443,21.936,448.16,116.951,448.16,234.161z
		 M426.862,234.161c0-105.475-85.093-191.007-190.17-191.007c-105.057,0-190.21,85.532-190.21,191.007
		c0,105.635,85.153,191.146,190.21,191.146S426.862,339.796,426.862,234.161z M236.692,331.009
		c-53.216-0.04-96.33-43.413-96.39-96.808c0.04-53.455,43.174-96.669,96.39-96.709c53.256,0.04,96.251,43.234,96.31,96.709
		C332.942,287.616,289.947,330.97,236.692,331.009z M311.564,234.161c0-41.541-33.372-75.231-74.833-75.231
		s-74.972,33.691-74.972,75.231c0,41.68,33.491,75.371,74.952,75.371S311.564,275.881,311.564,234.161z M273.112,348.861v46.721
		c63.616-14.544,109.739-51.781,124.303-131.296h-46.641C338.899,301.284,310.15,336.708,273.112,348.861z M454.814,358.125
		c-13.01,0-23.41,10.4-23.41,23.45c0,13.01,10.38,23.649,23.41,23.649c12.97,0,23.35-10.659,23.35-23.649
		C478.165,368.525,467.785,358.125,454.814,358.125z M398.212,417.976c-16.656,0-30.164,13.528-30.164,30.244
		c0,16.437,13.508,29.945,30.164,29.945c16.437,0,29.925-13.508,29.925-29.945C428.137,431.504,414.668,417.976,398.212,417.976z
		 M447.343,281.619c-7.571,0-13.648,6.097-13.648,13.867c0,7.511,6.117,13.608,13.648,13.608c7.511,0,13.608-6.136,13.608-13.608
		C460.951,287.696,454.854,281.619,447.343,281.619z M32.954,440.768c-8.268,0-15.002,6.674-15.002,15.002
		c0,8.368,6.734,15.301,15.002,15.301c8.328,0,15.082-6.933,15.082-15.301C47.916,447.443,41.301,440.768,32.954,440.768z
		 M28.232,361.373c-7.93,0-14.285,6.475-14.285,14.445c0,7.93,6.376,14.464,14.285,14.464c7.93,0,14.305-6.535,14.305-14.464
		C42.557,367.848,36.201,361.373,28.232,361.373z M75.211,397.793c-10.559,0-19.246,8.527-19.246,19.206
		c0,10.699,8.687,19.246,19.246,19.246c10.699,0,19.326-8.547,19.326-19.246C94.537,406.32,85.93,397.793,75.211,397.793z
		 M454.874,104.618c-5.559,0-9.922,4.582-9.922,10.201c0,5.439,4.363,10.041,9.922,10.041c5.599,0,10.161-4.602,10.161-10.041
		C465.035,109.221,460.453,104.618,454.874,104.618z M16.875,62.361C7.671,62.361,0,70.031,0,79.375S7.671,96.39,16.875,96.39
		c9.344,0,16.975-7.651,16.975-16.995C33.85,70.031,26.219,62.361,16.875,62.361z M55.806,0C44.071,0,34.547,9.543,34.547,21.398
		c0,11.755,9.384,21.278,21.238,21.278c11.695,0,21.238-9.543,21.238-21.278C77.044,9.543,67.501,0,55.806,0z M22.434,132.193
		c-5.858,0-10.599,4.841-10.599,10.719c0,5.977,4.722,10.719,10.599,10.719c5.977,0,10.699-4.742,10.699-10.719
		C33.153,137.054,28.431,132.193,22.434,132.193z"/>
</g>
<g>
</g>
<g>
</g>
<g>
</g>
<g>
</g>
<g>
</g>
<g>
</g>
<g>
</g>
<g>
</g>
<g>
</g>
<g>
</g>
<g>
</g>
<g>
</g>
<g>
</g>
<g>
</g>
<g>
</g>
</svg>
