<?xml version="1.0" encoding="iso-8859-1"?>
<!-- Generator: Adobe Illustrator 18.1.1, SVG Export Plug-In . SVG Version: 6.00 Build 0)  -->
<svg version="1.1" id="Capa_1" xmlns="http://www.w3.org/2000/svg" xmlns:xlink="http://www.w3.org/1999/xlink" x="0px" y="0px"
	 viewBox="0 0 478.165 478.165" style="enable-background:new 0 0 478.165 478.165;" xml:space="preserve">
<g>
	<path id="Diigo" d="M239.57,183.057c59.412-0.877,92.106-32.455,122.45-62.102v357.209h-59.89
		c-0.458-14.365-0.817-28.949-1.056-43.553v-99.936c0.239-37.815,1.056-75.65,1.056-112.827c-8.408,2.271-17.812,6.714-28.55,9.523
		c-32.276,8.467-74.653,4.144-99.179-10.281c0.06,17.573,0.239,35.304,0.299,53.056V461.23c-0.06,5.599-0.12,11.217-0.239,16.935
		h-60.149V119.999C145.073,152.515,179.162,184.034,239.57,183.057z M333.43,78.917c21.139,0,38.413-17.692,38.413-39.409
		C371.843,17.752,354.569,0,333.43,0c-21.358,0-38.632,17.752-38.632,39.508C294.798,61.225,312.072,78.917,333.43,78.917z
		 M144.894,78.917c21.358,0,38.532-17.692,38.532-39.409C183.426,17.692,166.272,0,144.894,0c-21.298,0-38.572,17.692-38.572,39.449
		S123.596,78.917,144.894,78.917z"/>
</g>
<g>
</g>
<g>
</g>
<g>
</g>
<g>
</g>
<g>
</g>
<g>
</g>
<g>
</g>
<g>
</g>
<g>
</g>
<g>
</g>
<g>
</g>
<g>
</g>
<g>
</g>
<g>
</g>
<g>
</g>
</svg>
