<?xml version="1.0" encoding="iso-8859-1"?>
<!-- Generator: Adobe Illustrator 18.1.1, SVG Export Plug-In . SVG Version: 6.00 Build 0)  -->
<svg version="1.1" id="Capa_1" xmlns="http://www.w3.org/2000/svg" xmlns:xlink="http://www.w3.org/1999/xlink" x="0px" y="0px"
	 viewBox="0 0 478.165 478.165" style="enable-background:new 0 0 478.165 478.165;" xml:space="preserve">
<g>
	<path id="eBay_3_" d="M429.193,135.45l-37.297,80.073l-34.308-80.073h-53.016l9.125,17.931c-5.08-0.657-10.639-1.116-16.776-1.116
		c-13.907,0-26.14,2.271-34.488,9.005c-8.906,5.618-13.946,16.178-13.946,32.495h36.799c0-10.699,0.498-20.76,13.946-20.76
		c13.209,0,14.983,8.368,14.983,19.585v10.579c-21.079-0.518-41.859,0-54.531,10.161c-5.599-5.618-12.871-9.045-23.888-9.045
		c-13.329,0-22.334,3.945-30.085,15.122h-0.498v-69.971h-36.679v63.277c-5.579-2.809-12.333-4.443-20.043-6.097
		c-12.811-2.809-29.467-4.483-50.646-4.483C9.384,202.134,0,229.509,0,261.486c0,36.898,11.157,62.679,97.844,62.679
		c20.043,0,37.317-2.072,51.144-4.881c7.212-1.793,13.966-4.084,19.545-6.894v27.514h35.006v-14.524h0.498
		c6.615,12.811,16.636,17.333,31.101,17.333c30.603,0,35.663-27.514,36.679-52.14c2.809,0.757,5.579,0.757,8.866,0.757
		c16.238,0,26.717-6.854,34.527-20.322h0.518l1.733,18.011h34.527c-0.757-8.348-1.773-16.815-1.773-25.163v-35.344l14.963,30.702
		v65.648h48.474v-65.648l64.512-123.765H429.193z M97.844,222.257c32.236,0,31.101,16.278,31.101,27.494H67.879
		C67.879,240.188,67.262,222.257,97.844,222.257z M148.988,281.609h-0.498h-21.717c0,10.181-4.961,21.378-28.949,21.378
		c-29.427,0-29.945-20.84-29.945-34.866h100.614v13.488H148.988L148.988,281.609z M235.775,272.165
		c0,33.591-2.291,47.577-15.6,47.577c-12.831,0-14.982-13.986-14.982-47.577c0-26.379,0-44.967,14.982-44.967
		C236.273,227.198,235.775,245.787,235.775,272.165z M295.685,268.081c-12.153,0-13.727-11.675-13.727-21.139
		c0-23.57,13.727-21.916,32.256-23.071C314.214,238.395,317.501,268.081,295.685,268.081z"/>
</g>
<g>
</g>
<g>
</g>
<g>
</g>
<g>
</g>
<g>
</g>
<g>
</g>
<g>
</g>
<g>
</g>
<g>
</g>
<g>
</g>
<g>
</g>
<g>
</g>
<g>
</g>
<g>
</g>
<g>
</g>
</svg>
