<?xml version="1.0" encoding="iso-8859-1"?>
<!-- Generator: Adobe Illustrator 18.1.1, SVG Export Plug-In . SVG Version: 6.00 Build 0)  -->
<svg version="1.1" id="Capa_1" xmlns="http://www.w3.org/2000/svg" xmlns:xlink="http://www.w3.org/1999/xlink" x="0px" y="0px"
	 viewBox="0 0 478.204 478.204" style="enable-background:new 0 0 478.204 478.204;" xml:space="preserve">
<g>
	<path id="Etsy" d="M98.826,472.245c40.305-1.674,89.178,0,136.974,0c49.111,0,99.538-3.267,139.246,0
		c16.118,1.315,30.822,10.998,43.991,2.51c10.241-13.15,2.71-30.702,5.001-48.414c4.264-33.571,35.205-73.817-9.802-82.543
		c-19.166,17.592-6.276,34.089-17.074,55.925c-13.189,26.16-60.348,35.105-105.216,38.731
		c-38.413,2.909-105.874,6.694-119.82-19.505c-11.675-22.035-4.762-56.503-4.762-84.675c0-32.117-3.487-62.879,4.762-87.245
		c48.972,3.606,112.249-16.297,146.797,4.722c22.972,14.305,9.862,41.939,36.54,50.885c18.509-4.822,8.727-28.63,7.412-50.885
		c-0.857-14.245-0.578-34.308,0-50.745c0.976-22.314,9.504-48.115-14.584-48.514c-19.087,14.903-4.702,39.488-24.546,53.276
		c-6.236,4.403-20.083,6.276-29.148,7.352c-36.799,3.825-94.218,0.737-124.841-4.861c-4.224-44.609-3.825-105.495,0-150.184
		c16.596-16.517,54.83-17.015,80.631-16.935c45.326,0.139,116.154,3.945,129.662,26.638c7.212,12.333,1.554,38.173,14.624,41.162
		c26.518,5.977,13.608-41.162,14.704-62.998c0.757-16.337,8.069-26.877,4.901-38.751c-8.507-11.695-21.418-5.838-29.407-4.861
		C301.687,12.609,175.332,7.19,86.672,7.19c-10.579,0-29.148-5.3-36.679,7.272c-5.14,28.032,33.053,16.457,46.442,31.519
		c4.303,4.861,10.759,26.538,12.153,41.162c3.945,38.831,0,98.123,0,155.045c0,60.109,4.602,120.776,0,157.555
		c-1.594,12.691-9.304,33.272-12.153,36.201c-16.656,16.656-60.727-1.674-56.284,33.93
		C55.612,480.234,78.045,473.161,98.826,472.245z"/>
</g>
<g>
</g>
<g>
</g>
<g>
</g>
<g>
</g>
<g>
</g>
<g>
</g>
<g>
</g>
<g>
</g>
<g>
</g>
<g>
</g>
<g>
</g>
<g>
</g>
<g>
</g>
<g>
</g>
<g>
</g>
</svg>
