<?xml version="1.0" encoding="iso-8859-1"?>
<!-- Generator: Adobe Illustrator 18.1.1, SVG Export Plug-In . SVG Version: 6.00 Build 0)  -->
<svg version="1.1" id="Capa_1" xmlns="http://www.w3.org/2000/svg" xmlns:xlink="http://www.w3.org/1999/xlink" x="0px" y="0px"
	 viewBox="0 0 478.165 478.165" style="enable-background:new 0 0 478.165 478.165;" xml:space="preserve">
<g>
	<path id="Formspring_3_" d="M198,37.098C229.22,13.289,270.402,0,314.194,0c31.858,0,62.759,7.053,89.377,20.541l0.219,0.02
		l0.04,0.02c6.754,3.168,11.217,9.982,11.217,17.274c0,1.833-0.359,3.686-0.837,5.519c-1.773,5.399-5.658,9.822-10.799,12.014
		c-2.411,1.056-5.061,1.574-7.551,1.574c-3.108,0-6.057-0.717-8.786-2.092c-16.815-8.468-35.862-13.827-55.607-15.859
		c-15.839-3.068-32.216-4.662-48.613-4.662c-38.652,0-75.729,8.607-107.727,24.526C181.663,51.144,189.293,43.752,198,37.098z
		 M438.477,345.016c0-6.057-2.809-11.994-8.049-15.68c-3.507-2.371-7.292-3.447-11.077-3.447c-6.037,0.04-12.034,2.869-15.56,8.029
		c-9.703,13.588-20.043,24.147-31.658,31.798c-13.568,9.185-35.085,23.211-35.384,23.311l0,0c-5.32,3.606-8.587,9.424-8.587,15.839
		l0.08,25.323l-58.894-24.884c-2.311-0.996-4.981-1.494-7.471-1.494h-0.976c-4.543,0.139-9.105,0.418-13.428,0.418
		c-65.429,0-125.199-26.678-156.181-70.31l-0.239-0.139l0.199,0.159c-0.618-0.897-1.335-1.554-2.052-2.371l-0.219-0.139
		l-0.219-0.319c-12.173-17.931-18.529-37.516-18.469-57.977c0-36.201,20.063-68.955,52-92.465
		c31.977-23.41,75.869-38.014,124.223-38.014c35.125,0,69.174,7.81,98.522,22.394l0.976,0.478h0.02
		c14.544,7.451,26.239,17.015,34.488,27.893c8.049,10.759,12.651,22.912,12.651,35.344c0,20.202-11.635,39.249-31.858,54.072
		c-22.673,16.058-52.698,24.964-84.894,24.964c-8.029,0-16.258-0.558-24.227-1.654h-0.159l0,0
		c-22.713-3.586-44.21-10.998-62.5-21.537l-0.418-0.299l-0.159-0.04c-35.723-21.039-56.623-52.499-56.623-86.388
		c0-2.63,0.1-5.3,0.359-7.89c-14.783,10.54-26.698,23.091-35.026,37.038c9.225,35.862,34.926,68.617,73.04,90.891l1.395,0.777h0.04
		c22.095,12.293,47.757,21.119,74.375,24.984h0.458h0.02c9.703,1.454,19.565,2.231,29.407,2.231
		c40.265,0,78.519-11.615,107.388-32.316c30.881-22.354,47.677-52.578,47.677-84.854c0-39.269-25.562-75.869-69.115-97.665
		l-0.976-0.418l-0.02-0.12c-34.189-16.915-74.076-25.96-114.839-25.96c-56.463,0-109.719,17.015-149.905,47.797
		c-41.919,32.037-64.672,74.793-64.771,120.757c0,28.909,9.464,57.34,27.196,82.244c0.737,1.016,1.634,1.933,2.55,2.889l0.259,0.359
		l0.04,0.1c38.114,51.662,108.982,83.599,185.568,83.599c3.327,0,6.674-0.06,10.281-0.139l0.538-0.02l81.527,34.567
		c2.391,0.996,4.881,1.434,7.571,1.434c3.666,0,7.412-0.976,10.38-3.148c5.519-3.427,8.727-9.444,8.727-15.819l0.02-43.951
		l1.395-0.897c7.531-4.861,17.832-11.715,25.642-16.955c15.142-10.201,29.128-24.187,41.521-41.481
		C437.441,352.567,438.477,348.821,438.477,345.016z M282.974,261.855l-0.458,2.889L282.974,261.855h0.06
		c8.448,1.116,17.234,1.654,26.06,1.654c22.553,0,44.41-4.224,63.915-11.775c4.622-7.471,7.053-15.182,7.053-23.091
		c0-6.794-1.893-13.548-5.539-20.103c-18.13,10.739-41.222,16.995-65.429,16.995c-6.973,0-13.907-0.458-20.461-1.395
		c-45.047-6.774-80.83-30.403-95.733-61.205c-12.811,3.287-24.825,7.69-35.962,13.09
		C176.084,219.159,223.183,252.75,282.974,261.855z M446.327,159.408c0-34.727-22.334-67.142-60.508-86.588l-1.096-0.598v-0.02
		c-30.344-15.162-65.409-23.211-101.71-23.211c-49.59,0-96.47,14.982-131.754,41.999c-11.934,9.125-22.175,19.226-30.483,30.164
		c36.341-19.186,78.658-29.806,122.988-30.284c12.632-2.451,25.761-3.766,39.249-3.766c30.682,0,60.169,6.754,85.372,19.585
		l0.976,0.478l0.02,0.04c17.214,9.025,29.467,21.478,35.125,35.464c16.158,14.285,27.913,31.26,34.767,49.729
		C443.936,181.842,446.327,170.705,446.327,159.408z"/>
</g>
<g>
</g>
<g>
</g>
<g>
</g>
<g>
</g>
<g>
</g>
<g>
</g>
<g>
</g>
<g>
</g>
<g>
</g>
<g>
</g>
<g>
</g>
<g>
</g>
<g>
</g>
<g>
</g>
<g>
</g>
</svg>
