<?xml version="1.0" encoding="iso-8859-1"?>
<!-- Generator: Adobe Illustrator 18.1.1, SVG Export Plug-In . SVG Version: 6.00 Build 0)  -->
<svg version="1.1" id="Capa_1" xmlns="http://www.w3.org/2000/svg" xmlns:xlink="http://www.w3.org/1999/xlink" x="0px" y="0px"
	 viewBox="0 0 478.165 478.165" style="enable-background:new 0 0 478.165 478.165;" xml:space="preserve">
<g>
	<path id="foursquare_3_" d="M478.165,34.527L299.311,217.067l-64.373-62.062l-26.917,25.96
		c-14.305-40.863-54.232-70.27-101.152-70.27C47.856,110.675,0,157.097,0,214.357c0,56.862,46.92,102.785,105.256,103.662
		L234.46,443.637l148.55-144.286l-14.146-14.604l109.3-84.715V34.527z M461.887,190.708L222.486,379.145l-90.094-79.913
		c-8.368,2.371-17.114,3.785-26.18,3.785c-50.426,0-91.21-39.648-91.21-88.52c0-48.833,40.803-88.52,91.21-88.52
		c50.227,0,91.09,39.688,91.09,88.52c0,13.11-3.028,25.482-8.228,36.679l36.739,59.731L462.186,67.401L461.887,190.708z"/>
</g>
<g>
</g>
<g>
</g>
<g>
</g>
<g>
</g>
<g>
</g>
<g>
</g>
<g>
</g>
<g>
</g>
<g>
</g>
<g>
</g>
<g>
</g>
<g>
</g>
<g>
</g>
<g>
</g>
<g>
</g>
</svg>
