<?xml version="1.0" encoding="iso-8859-1"?>
<!-- Generator: Adobe Illustrator 18.1.1, SVG Export Plug-In . SVG Version: 6.00 Build 0)  -->
<svg version="1.1" id="Capa_1" xmlns="http://www.w3.org/2000/svg" xmlns:xlink="http://www.w3.org/1999/xlink" x="0px" y="0px"
	 viewBox="0 0 478.165 478.165" style="enable-background:new 0 0 478.165 478.165;" xml:space="preserve">
<g>
	<path id="Google_Buzz_3_" d="M478.165,220.902c0,40.744-15.919,78.578-42.995,109.759L291.9,185.796l118.166-98.761
		C452.145,121.623,478.165,168.801,478.165,220.902z M172.717,262.083L395.462,75.958c-41.939-29.029-96.589-46.741-156.38-46.741
		c-86.887,0-162.994,37.177-204.794,92.903L172.717,262.083z M64.931,352.217l94.059-78.559L24.048,137.083
		C8.647,162.466,0,190.956,0,220.902C0,271.766,24.725,317.969,64.931,352.217z M422.917,343.65L278.272,197.292l-104.32,87.126
		l-2.112,2.231l-0.239,0.996l-30.583,26.777h-1.355l-43.991,34.866l0,0l-16.776,14.365c3.307,2.311,7.033,4.363,10.54,6.694
		c-8.109,21.996-20.063,47-38.034,72.781c41.999,18.23,89.895-9.743,123.566-37.416c20.461,4.403,41.919,6.993,64.114,6.993
		C312.899,412.745,379.045,385.749,422.917,343.65z"/>
</g>
<g>
</g>
<g>
</g>
<g>
</g>
<g>
</g>
<g>
</g>
<g>
</g>
<g>
</g>
<g>
</g>
<g>
</g>
<g>
</g>
<g>
</g>
<g>
</g>
<g>
</g>
<g>
</g>
<g>
</g>
</svg>
