<?xml version="1.0" encoding="iso-8859-1"?>
<!-- Generator: Adobe Illustrator 18.1.1, SVG Export Plug-In . SVG Version: 6.00 Build 0)  -->
<svg version="1.1" id="Capa_1" xmlns="http://www.w3.org/2000/svg" xmlns:xlink="http://www.w3.org/1999/xlink" x="0px" y="0px"
	 viewBox="0 0 612 612" style="enable-background:new 0 0 612 612;" xml:space="preserve">
<path d="M590.477,269.331l5.507-107.534H390.328l-8.976,48.852v-32.736H268.413v51.688h-37.434v14.431
	c-12.609-11.191-28.956-17.746-47.251-17.746c-12.188,0-23.307,2.423-33.328,6.324v-70.814H0v99.373h20.043v84.252H0v99.245h230.978
	v0.026h170.697V431.95c20.239,11.228,46.735,18.253,78.923,18.253c77.495,0,131.401-48.628,131.401-118.574
	C612,309.672,604.783,287.259,590.477,269.331z M295.163,204.714h59.721v39.5h-59.721V204.714z M144.661,417.844v-45.976h9.205
	v-45.39c0-13.846-0.892-26.673-9.205-26.673c-7.829,0-15.811,10.098-20.935,30.574v41.489h8.873v45.976H26.622v-45.976H46.69
	V234.345H26.622v-45.798h97.104v102.51c10.379-19.431,31.671-38.123,59.823-38.123c27.158,0,47.073,22.95,47.073,53.423v65.56h0.356
	v45.926H144.661z M257.627,417.844v-45.976h19.939h0.41v-69.64h-20.375v-45.874h97.256v115.515h0v0.024h20.323v39.449
	c0.007,0.008,0.015,0.016,0.022,0.023l0.004,6.479H257.627z M482.868,423.734c-36.078,0-63.975-10.687-81.193-25.783v-52.528
	h-17.293c5.103-15.01,18.397-26.468,38.203-26.468c17.901,0,26.979,12.01,26.979,25.933c0,7.65-3.009,10.685-3.009,16.728
	c0,8.441,4.055,14.305,18.411,14.305c19.89,0,29.86-20.935,29.86-41.947c0-18.666-7.216-32.717-23.204-32.717
	c-11.501,0-17.518,4.692-19.89,11.934l-58.497-7.548l21.547-117.147h155.475l-3.06,58.93H463.922l-5.584,31.059
	c6.655-10.379,28.076-19.125,55.207-19.125c48.833,0,74.052,37.383,74.052,72.241C587.494,382.552,550.57,423.734,482.868,423.734z"
	/>
<g>
</g>
<g>
</g>
<g>
</g>
<g>
</g>
<g>
</g>
<g>
</g>
<g>
</g>
<g>
</g>
<g>
</g>
<g>
</g>
<g>
</g>
<g>
</g>
<g>
</g>
<g>
</g>
<g>
</g>
</svg>
