<?xml version="1.0" encoding="iso-8859-1"?>
<!-- Generator: Adobe Illustrator 18.1.1, SVG Export Plug-In . SVG Version: 6.00 Build 0)  -->
<svg version="1.1" id="Capa_1" xmlns="http://www.w3.org/2000/svg" xmlns:xlink="http://www.w3.org/1999/xlink" x="0px" y="0px"
	 viewBox="0 0 478.175 478.175" style="enable-background:new 0 0 478.175 478.175;" xml:space="preserve">
<g>
	<path id="Krop" d="M177.37,348.319c2.63,12.173-9.942,25.163-18.688,27.036c-3.925,0.916-6.774-0.737-7.352-3.108
		c-0.518-2.371,2.032-5.061,1.355-7.949c-1.893-8.846-40.385-37.815-112.747-93.083c-4.682,74.932-5.14,115.517-6.057,120.976
		c-1.415,7.491-8.986,12.691-17.772,14.544c-7.81,1.753-13.787-2.251-15.441-9.902c-2.57-11.934,2.172-103.423,15.979-273.57
		c-0.498-2.471-1.434-4.343-1.474-4.802c-4.443-20.561,5.399-33.89,18.609-36.739c8.268-1.853,21.099,0.538,22.992,9.344
		c1.833,8.328-5.419,52.797-12.333,134.544c28.65-47.518,70.25-103.144,122.012-169.031c7.551-9.842,13.548-15.162,19.425-16.397
		c5.399-1.175,8.926,1.156,10.281,7.471c1.116,4.881-1.255,10.52-6.754,13.767c-28.71,37.357-69.613,98.801-124.98,183.037
		C138.44,291.298,174.242,334.034,177.37,348.319z M474.908,191.9c11.994,55.128-10.699,113.863-41.042,120.378
		c-11.715,2.471-24.805-1.793-30.862-10.699c-0.996,68.716,0.1,107.328,2.231,116.652c1.076,5.3,5.758,5.758,6.216,7.71
		c1.255,5.439-3.307,10.52-8.089,11.596c-11.934,2.411-19.824-0.916-21.936-11.197c-1.793-8.029-5.618-71.884-0.478-187.66
		c-6.296,8.507-13.428,14.345-21.418,17.612c-3.307,53.315-20.641,84.137-49.032,90.274c-18.987,4.144-35.125-4.363-42.318-24.825
		c-8.109,18.23-16.457,27.853-30.025,30.822c-18.13,3.785-31.519-6.017-35.723-25.582c-4.443-20.541-3.228-47.777,2.869-83.4
		l-14.046-1.175c-6.057,45.306-12.452,69.872-22.713,71.924c-3.447,0.837-6.933-1.016-7.93-6.017
		c-0.837-3.347,8.707-30.443,9.882-79.256c-6.097-2.311-9.643-4.543-10.579-8.926c-2.052-9.284,7.79-25.203,22.434-28.411
		c6.794-1.454,13.13,1.813,14.445,7.651c0.558,2.869,0.717,7.969,0.458,13.648l17.114,1.375c1.554-4.921,4.184-9.105,7.89-13.389
		c2.63-1.634,4.981-2.59,6.037-2.829c7.272-1.574,18.429,2.67,19.824,8.966c1.056,4.881-1.375,10.041-7.133,16.835
		c-13.329,39.807-16.596,72.123-11.655,95.055c1.853,8.328,6.316,12.512,9.743,11.675c8.607-1.853,17.851-16.935,25.662-45.465
		c1.036-17.254,5.061-37.815,12.671-58.376c6.455-17.732,14.484-27.714,24.247-29.806c6.435-1.415,12.492,0.398,15.959,5.32
		c2.849-1.156,5.12-2.132,8.209-2.829c13.15-2.929,26.279,8.647,32.256,33.412c16.038-9.284,20.043-25.223,24.765-33.372
		c2.351-48.852,3.805-68.915,14.484-71.227c5.26-1.175,13.03,1.215,14.205,7.053c1.674,6.913-2.949,26.279-4.363,59.771
		c10.32-25.243,19.147-39.309,29.427-41.58C452.036,150.2,468.772,163.509,474.908,191.9z M332.953,233.321
		c-1.873-8.886-6.415-12.91-11.655-11.755c-14.564,3.108-33.99,53.913-26.16,89.457c2.271,10.32,6.595,14.425,13.568,12.99
		C324.645,320.446,340.783,268.944,332.953,233.321z M450.522,194.57c-2.271-10.281-6.336-14.504-10.679-13.568
		c-7.89,1.773-27.973,36.221-34.049,100.534c3.008,8.946,11.695,13.707,19.525,12.133c13.169-2.869,19.505-16.636,24.008-42.019
		C453.55,228.141,453.391,208.277,450.522,194.57z"/>
</g>
<g>
</g>
<g>
</g>
<g>
</g>
<g>
</g>
<g>
</g>
<g>
</g>
<g>
</g>
<g>
</g>
<g>
</g>
<g>
</g>
<g>
</g>
<g>
</g>
<g>
</g>
<g>
</g>
<g>
</g>
</svg>
