<?xml version="1.0" encoding="iso-8859-1"?>
<!-- Generator: Adobe Illustrator 18.1.1, SVG Export Plug-In . SVG Version: 6.00 Build 0)  -->
<svg version="1.1" id="Capa_1" xmlns="http://www.w3.org/2000/svg" xmlns:xlink="http://www.w3.org/1999/xlink" x="0px" y="0px"
	 viewBox="0 0 478.198 478.198" style="enable-background:new 0 0 478.198 478.198;" xml:space="preserve">
<g>
	<path id="MSN_Messenger" d="M0.025,281.617c7.93-73.797,69.274-99.936,78.24-103.284C63.043,166.22,53.28,147.77,53.28,127.05
		c0-36.4,30.085-65.768,67.162-65.768c37.098,0,67.102,29.367,67.102,65.768c0,20.561-9.563,38.911-24.546,50.885
		c12.572,4.463,24.904,11.157,35.942,19.784c-29.208,14.524-93.481,56.643-103.224,147.374c0,0.877,0,1.534,0,2.271
		c-56.443-3.606-62.221-18.768-62.221-18.768v-0.04c-3.586-3.586-6.336-7.81-8.069-13.03c-8.228-2.072-13.389-6.953-13.389-6.953
		S-0.633,303.871,0.025,281.617z M235.421,200.01c-13.289,5.001-104.14,43.732-115.875,153.053
		c-0.976,32.993,17.732,39.967,17.732,39.967l0,0c0,0,7.671,7.232,19.884,10.081c2.51,7.93,6.635,14.325,11.954,19.465l0,0
		c0,0,9.045,23.868,98.98,28.371c1.335,0.179,2.749,0.438,4.064,0.598c7.471,0,14.963,0,22.394,0c2.809,0,5.658,0.04,8.567,0
		c8.448,0,17.154,0,25.662,0c2.271-0.418,4.323-0.717,6.654-1.056c92.644-6.216,102.367-35.026,102.367-35.026h-0.12
		c2.57-3.646,4.562-7.75,5.997-12.353c42.059-8.189,38.751-58.436,26.16-96.808c-17.433-53.535-62.082-90.313-108.802-106.69
		c22.314-17.931,36.42-45.087,36.42-75.51c0-53.833-44.429-97.466-99.478-97.466c-54.889,0-99.478,43.633-99.478,97.466
		C198.443,154.784,212.928,182.079,235.421,200.01z"/>
</g>
<g>
</g>
<g>
</g>
<g>
</g>
<g>
</g>
<g>
</g>
<g>
</g>
<g>
</g>
<g>
</g>
<g>
</g>
<g>
</g>
<g>
</g>
<g>
</g>
<g>
</g>
<g>
</g>
<g>
</g>
</svg>
