<?xml version="1.0" encoding="iso-8859-1"?>
<!-- Generator: Adobe Illustrator 18.1.1, SVG Export Plug-In . SVG Version: 6.00 Build 0)  -->
<svg version="1.1" id="Capa_1" xmlns="http://www.w3.org/2000/svg" xmlns:xlink="http://www.w3.org/1999/xlink" x="0px" y="0px"
	 viewBox="0 0 478.165 478.165" style="enable-background:new 0 0 478.165 478.165;" xml:space="preserve">
<g>
	<path id="Pandora" d="M380.808,38.213C351.262,12.751,310.16,0,258.06,0H53.106v16.756c65.23,0,73.757,11.117,73.757,92.465
		v258.926c0,81.368-8.507,93.302-73.757,93.302v16.716h209.675v-16.736c-65.25,0-73.777-11.914-73.777-93.322v-99.558h69.075
		c52.12,0,93.222-12.711,122.689-37.416c29.507-25.482,44.29-57.4,44.29-96.45S410.275,63.795,380.808,38.213z M257.322,239.859
		h-68.338V29.467h68.338c64.512,0,98.661,43.832,98.661,105.216S321.815,239.859,257.322,239.859z"/>
</g>
<g>
</g>
<g>
</g>
<g>
</g>
<g>
</g>
<g>
</g>
<g>
</g>
<g>
</g>
<g>
</g>
<g>
</g>
<g>
</g>
<g>
</g>
<g>
</g>
<g>
</g>
<g>
</g>
<g>
</g>
</svg>
