<?xml version="1.0" encoding="iso-8859-1"?>
<!-- Generator: Adobe Illustrator 18.1.1, SVG Export Plug-In . SVG Version: 6.00 Build 0)  -->
<svg version="1.1" id="Capa_1" xmlns="http://www.w3.org/2000/svg" xmlns:xlink="http://www.w3.org/1999/xlink" x="0px" y="0px"
	 viewBox="0 0 478.165 478.165" style="enable-background:new 0 0 478.165 478.165;" xml:space="preserve">
<g>
	<path id="PayPal_3_" d="M308.355,0H99.078L6.314,425.826h122.848l30.144-141.198h87.743c83.918,0,154.248-51.682,172.996-139.724
		C441.364,45.246,369.898,0,308.355,0z M216.826,203.12H176.78l26.339-116.433h60.109c20.78,0,36.281,12.293,41.401,30.304
		c-2.69-0.458-5.061-1.195-7.87-1.195H236.55L216.826,203.12z M304.609,144.944c-7.272,31.579-37.317,56.842-67.86,57.997
		l14.285-63.915h54.571C305.386,141.039,305.107,142.892,304.609,144.944z M453.378,173.992c7.093-32.993,3.885-59.93-5.638-81.348
		c19.884,23.669,30.164,58.197,20.342,104.599c-18.927,88.102-89.038,139.903-173.076,139.903h-87.763l-30.005,141.019H54.409
		l5.041-23.311h103.224l30.085-141.158h87.743C364.499,313.696,434.61,261.915,453.378,173.992z"/>
</g>
<g>
</g>
<g>
</g>
<g>
</g>
<g>
</g>
<g>
</g>
<g>
</g>
<g>
</g>
<g>
</g>
<g>
</g>
<g>
</g>
<g>
</g>
<g>
</g>
<g>
</g>
<g>
</g>
<g>
</g>
</svg>
