<?xml version="1.0" encoding="iso-8859-1"?>
<!-- Generator: Adobe Illustrator 18.1.1, SVG Export Plug-In . SVG Version: 6.00 Build 0)  -->
<svg version="1.1" id="Capa_1" xmlns="http://www.w3.org/2000/svg" xmlns:xlink="http://www.w3.org/1999/xlink" x="0px" y="0px"
	 viewBox="0 0 478.165 478.165" style="enable-background:new 0 0 478.165 478.165;" xml:space="preserve">
<g>
	<path id="Ping" d="M0,129.284c13.01-2.311,30.543-3.965,53.993-3.965c25.861,0,44.529,5.379,56.882,15.501
		c11.476,9.344,18.927,24.466,18.927,42.278c0,18.17-5.658,32.914-16.357,43.154c-14.405,13.986-36.181,20.78-61.165,20.78
		c-6.575,0-12.333-0.279-17.234-1.415v72.362H0V129.284z M35.045,218.083c4.622,1.395,10.041,1.654,17.234,1.654
		c26.419,0,42.497-13.07,42.497-35.225c0-21.258-14.943-32.276-39.269-32.276c-9.782,0-16.716,0.877-20.461,1.654
		C35.045,153.889,35.045,218.083,35.045,218.083z M141.278,317.96V179.77h35.285v138.19H141.278z M200.53,220.872
		c0-15.879-0.677-29.208-1.175-41.102h30.682l1.753,20.74h0.797c6.316-10.878,21.537-23.948,44.828-23.948
		c24.347,0,49.57,15.62,49.57,59.412v81.985H291.8v-78.12c0-19.864-7.471-34.866-26.638-34.866
		c-14.106,0-23.948,9.982-27.674,20.501c-1.175,2.849-1.713,7.053-1.713,11.018v81.467H200.51v-97.087H200.53z M477.109,297.817
		c0,28.969-6.057,49.59-20.84,62.679c-14.186,12.711-34.647,16.776-53.853,16.776c-17.772,0-36.799-4.064-48.892-11.137l7.85-26.239
		c8.886,5.14,23.789,10.38,40.684,10.38c22.932,0,40.206-11.775,40.206-41.58v-12.054h-0.558
		c-7.989,12.173-22.255,20.481-40.704,20.481c-34.866,0-59.591-28.391-59.591-67.541c0-45.426,29.885-72.82,63.496-72.82
		c21.537,0,33.99,10.261,40.544,21.537h0.538l1.415-18.409h30.762c-0.518,9.344-1.056,20.72-1.056,39.708V297.817z M441.705,235.078
		c0-3.447-0.379-6.535-1.016-9.344c-3.726-12.811-13.927-22.414-28.869-22.414c-19.684,0-34.468,17.035-34.468,45.107
		c0,23.45,12.094,42.517,34.149,42.517c13.349,0,24.745-8.448,28.849-21.159c1.036-3.546,1.435-8.288,1.435-12.392v-22.275h-0.06
		L441.705,235.078L441.705,235.078z M159.169,100.893c-17.513,0-31.738,14.146-31.738,31.439s14.225,31.32,31.738,31.32
		c17.393,0,31.619-14.026,31.619-31.32C190.808,115.038,176.562,100.893,159.169,100.893z M159.169,157.356
		c-14.006,0-25.402-11.217-25.402-25.044c0-13.907,11.396-25.124,25.402-25.124s25.303,11.217,25.303,25.124
		C184.472,146.119,173.175,157.356,159.169,157.356z M170.705,140.72c0.219,2.63-1.833,4.981-4.463,5.399
		c-2.63,0.279-5.1-1.634-5.32-4.224c-0.239-2.73,1.833-5.12,4.582-5.399c0.797-0.179,1.654,0,2.391,0.259v-13.07l-12.651,2.331
		v16.357h-0.04l0.04,0.06c0.199,2.59-1.853,5.1-4.602,5.379c-2.65,0.418-4.981-1.474-5.22-4.184
		c-0.219-2.61,1.853-4.981,4.483-5.399c0.897-0.06,1.793,0,2.49,0.398V119.76l0,0l18.29-3.068l0,0l0,0l0,0v0.04v23.809l0,0
		C170.705,140.541,170.705,140.58,170.705,140.72z"/>
</g>
<g>
</g>
<g>
</g>
<g>
</g>
<g>
</g>
<g>
</g>
<g>
</g>
<g>
</g>
<g>
</g>
<g>
</g>
<g>
</g>
<g>
</g>
<g>
</g>
<g>
</g>
<g>
</g>
<g>
</g>
</svg>
