<?xml version="1.0" encoding="iso-8859-1"?>
<!-- Generator: Adobe Illustrator 18.1.1, SVG Export Plug-In . SVG Version: 6.00 Build 0)  -->
<svg version="1.1" id="Capa_1" xmlns="http://www.w3.org/2000/svg" xmlns:xlink="http://www.w3.org/1999/xlink" x="0px" y="0px"
	 viewBox="0 0 478.181 478.181" style="enable-background:new 0 0 478.181 478.181;" xml:space="preserve">
<g>
	<path id="Plixi" d="M142.651,252.874c1.355,17.055,5.26,58.316,13.887,81.328c-10.599-1.913-22.275-4.284-33.551-6.694
		c-12.193-2.53-24.586-3.925-32.615-10.221c-8.189-6.256-15.839-17.035-15.979-31.917c-0.139-20.999,15.62-38.413,35.842-40.246
		C122.409,243.948,131.972,248.79,142.651,252.874z M376.474,58.5c-17.891-29.786-48.374-62.201-98.542-58.157
		c-25.681,2.172-45.167,14.704-60.807,28.152c-31.101,26.857-52.578,65.07-62.082,111.811c-5.359,26.399-5.798,52.817-5.12,80.531
		c0.398,14.604,0.299,28.212,1.913,41.521c4.682,39.07,11.396,74.514,23.749,106.71c11.556,30.563,27.694,59.153,47.936,82.523
		c6.953,8.029,14.943,18.051,21.757,21.677c25.761,13.847,55.567-3.228,54.989-30.603c-0.319-13.528-5.559-17.254-12.153-26.299
		c-3.726-5.18-7.212-11.217-10.181-16.457c-1.474-2.51-2.809-5.1-4.124-7.631l0,0c0,0-22.613-26.678-37.317-101.969
		c-3.467-16.218-6.097-33.252-7.651-50.885c0,0,0-0.159,0-0.279l0,0c-0.976-11.416-1.494-23.052-1.494-34.886
		c0-47.757,7.85-87.544,29.407-114.999c6.156-7.83,18.35-18.808,31.32-18.529c20.481,0.339,30.822,21.637,35.922,36.998
		c13.229,40.524,6.654,90.991-7.73,123.984c-7.69,17.672-16.357,32.794-32.714,40.883c-12.651,6.336-26.877,5.818-40.126,2.889
		c0,0-1.913,20.222,20.083,78.698c22.434,0.737,40.604-6.376,55.945-15.7c46.721-28.55,76.845-85.293,83.181-151.479
		C407.634,135.724,395.939,90.856,376.474,58.5z"/>
</g>
<g>
</g>
<g>
</g>
<g>
</g>
<g>
</g>
<g>
</g>
<g>
</g>
<g>
</g>
<g>
</g>
<g>
</g>
<g>
</g>
<g>
</g>
<g>
</g>
<g>
</g>
<g>
</g>
<g>
</g>
</svg>
