<?xml version="1.0" encoding="iso-8859-1"?>
<!-- Generator: Adobe Illustrator 18.1.1, SVG Export Plug-In . SVG Version: 6.00 Build 0)  -->
<svg version="1.1" id="Capa_1" xmlns="http://www.w3.org/2000/svg" xmlns:xlink="http://www.w3.org/1999/xlink" x="0px" y="0px"
	 viewBox="0 0 478.165 478.165" style="enable-background:new 0 0 478.165 478.165;" xml:space="preserve">
<g>
	<path id="CloudApp" d="M101.57,411.341v0.08h2.391c1.295,0,2.51,0.319,3.845,0.319c1.255,0,2.451-0.319,3.766-0.319h239.62v-0.04
		c1.793,0.04,3.586,0.359,5.22,0.359c67.202,0,121.753-55.029,121.753-122.729c0-67.72-54.551-122.629-121.753-122.629
		c-2.451,0-4.822,0.219-7.192,0.319C338.64,109.639,289.09,66.425,229.559,66.425c-67.242,0-121.693,54.909-121.693,122.649
		c0,1.833,0.219,3.467,0.259,5.32c-0.04,0-0.199,0-0.259,0C48.295,194.374,0,242.967,0,302.977
		C0,360.915,44.888,408.074,101.57,411.341z"/>
</g>
<g>
</g>
<g>
</g>
<g>
</g>
<g>
</g>
<g>
</g>
<g>
</g>
<g>
</g>
<g>
</g>
<g>
</g>
<g>
</g>
<g>
</g>
<g>
</g>
<g>
</g>
<g>
</g>
<g>
</g>
</svg>
