<?xml version="1.0" encoding="iso-8859-1"?>
<!-- Generator: Adobe Illustrator 18.1.1, SVG Export Plug-In . SVG Version: 6.00 Build 0)  -->
<svg version="1.1" id="Capa_1" xmlns="http://www.w3.org/2000/svg" xmlns:xlink="http://www.w3.org/1999/xlink" x="0px" y="0px"
	 viewBox="0 0 478.165 478.165" style="enable-background:new 0 0 478.165 478.165;" xml:space="preserve">
<g>
	<path id="Scribd_2_" d="M310.568,426.025c-3.666,4.383-7.312,8.567-11.675,12.612c-27.156,26.339-60.269,39.528-99.06,39.528
		c-37.835,0-71.087-10.34-100.116-30.782c-28.949-20.581-51.203-51.443-66.784-92.585l1.175-0.379
		c-1.255-4.403-2.192-8.986-2.192-13.887c0-28.57,23.231-51.582,51.901-51.582c28.63,0,51.801,23.012,51.801,51.582
		c0,14.624-6.236,27.714-15.939,37.038c20.461,23.609,46.382,35.783,78.001,35.783c22.553,0,41.202-6.794,56.005-20.143
		c14.923-13.309,22.294-30.284,22.294-50.546c0-12.173-3.766-24.327-11.715-36.779c-7.79-12.273-17.314-22.374-29.009-30.344
		c-11.576-7.85-30.025-17.015-55.288-27.335c-25.263-10.36-44.728-19.724-58.396-28.331c-13.628-8.587-25.383-18.808-35.424-30.603
		c-9.902-11.874-17.214-23.689-21.816-35.424c-4.562-11.695-6.953-24.247-6.953-37.576c0-32.157,13.01-59.611,39.01-82.185
		C122.39,11.416,153.889,0,190.967,0c24.645,0,49.49,5.359,74.813,15.919c21.039,8.766,38.951,21.517,54.132,37.994
		c10.699,9.404,17.612,23.131,17.612,38.552c0,28.511-23.131,51.562-51.801,51.562c-28.471,0-51.761-23.071-51.761-51.582
		c0-7.511,1.813-14.624,4.662-21.139c-10.5-5.16-24.386-7.83-42.218-7.83c-22.075,0-40.066,4.921-53.853,14.943
		c-13.767,9.982-20.681,22.713-20.681,38.472c0,13.568,5.977,25.522,18.031,35.962c12.094,10.4,32.575,21.836,61.663,34.209
		c29.009,12.333,51.582,23.908,67.8,34.547c16.098,10.639,29.288,22.454,39.688,35.344c10.38,12.95,18.17,26.598,23.191,40.863
		c0.279,0.916,0.339,1.933,0.677,2.889c-21.916,18.15-36.141,45.246-36.141,75.869C296.821,394.745,301.921,411.421,310.568,426.025
		z M386.437,317.103c-32.953,0-59.691,26.678-59.691,59.432c0,32.814,26.737,59.492,59.691,59.492
		c32.993,0,59.81-26.717,59.81-59.492C446.247,343.741,419.45,317.103,386.437,317.103z"/>
</g>
<g>
</g>
<g>
</g>
<g>
</g>
<g>
</g>
<g>
</g>
<g>
</g>
<g>
</g>
<g>
</g>
<g>
</g>
<g>
</g>
<g>
</g>
<g>
</g>
<g>
</g>
<g>
</g>
<g>
</g>
</svg>
