<?xml version="1.0" encoding="iso-8859-1"?>
<!-- Generator: Adobe Illustrator 18.1.1, SVG Export Plug-In . SVG Version: 6.00 Build 0)  -->
<svg version="1.1" id="Capa_1" xmlns="http://www.w3.org/2000/svg" xmlns:xlink="http://www.w3.org/1999/xlink" x="0px" y="0px"
	 viewBox="0 0 478.165 478.165" style="enable-background:new 0 0 478.165 478.165;" xml:space="preserve">
<g>
	<path id="Simplenote" d="M67.262,405.374C31.778,366.683,3.706,316.615,0,249.373c0-6.495,0-13.05,0-19.565
		c1.415-28.331,8.667-54.172,17.732-77.562c11.735-30.344,29.925-59.292,51.403-77.483c-0.02,14.484,0.398,28.431,1.873,37.357
		c4.602,27.255,19.764,56.981,38.293,75.65c14.963,14.943,35.225,25.422,56.045,36.38c41.521,21.996,81.009,41.541,122.35,63.496
		c26.598,14.106,54.033,31.718,61.623,59.771c11.097,39.747-12.193,76.626-30.822,96.191c-17.174,18.15-39.608,30.383-66.305,34.547
		c-10.54,0-21.199,0-31.758,0C154.826,470.803,102.945,444.125,67.262,405.374z M225.076,165.335
		c38.293,20.043,77.881,40.544,116.732,60.667c20.083,10.48,38.293,21.278,52.299,36.44c25.562,27.594,41.461,63.556,38.253,115.815
		c6.376-6.077,12.113-14.524,16.855-23.35c13.947-25.323,25.163-57.838,28.012-95.254c-0.06-0.996,0.12-1.753,0.936-1.873
		c0-12.392,0-24.805,0-37.357C461.788,89.008,372.231,10.231,246.554,0.01c-4.005,0-8.129,0-12.153,0
		c-24.546,4.184-48.514,11.177-62.56,27.116c-9.862,11.177-17.712,31.041-18.708,43.892
		C148.749,126.026,188.178,145.93,225.076,165.335z"/>
</g>
<g>
</g>
<g>
</g>
<g>
</g>
<g>
</g>
<g>
</g>
<g>
</g>
<g>
</g>
<g>
</g>
<g>
</g>
<g>
</g>
<g>
</g>
<g>
</g>
<g>
</g>
<g>
</g>
<g>
</g>
</svg>
