<?xml version="1.0" encoding="iso-8859-1"?>
<!-- Generator: Adobe Illustrator 18.1.1, SVG Export Plug-In . SVG Version: 6.00 Build 0)  -->
<svg version="1.1" id="Capa_1" xmlns="http://www.w3.org/2000/svg" xmlns:xlink="http://www.w3.org/1999/xlink" x="0px" y="0px"
	 viewBox="0 0 478.173 478.173" style="enable-background:new 0 0 478.173 478.173;" xml:space="preserve">
<g>
	<path id="SlideShare_2_" d="M470.857,187.674c-18.27,35.045-56.304,45.605-93.601,65.309c0,27.574,0,64.911,0,75.391
		c0,10.679-13.867,72.721-66.186,72.721c-52.359,0-69.633-29.985-69.633-42.457c0-6.097,0-38.353,0-70.071
		c-5.14-1.076-10.261-2.909-15.122-5.559c0,28.471,0,63.317,0,75.59c0,12.512-19.445,30.284-45.286,30.284
		c-25.721,0-75.43-36.42-75.43-60.348c0-24.107,0-81.985,0-81.985s-68.876-26.897-84.914-46.521
		C4.746,180.422-3.223,172.452,1.22,160.897c4.264-11.097,55.965,32.097,86.109,39.13c30.184,7.192,82.603,10.759,104.798,9.822
		c22.195-0.897,34.587,7.969,47,19.565c0.677,0.558,1.415,1.255,2.271,1.893c0-5.339,0-8.667,0-8.667
		c0-10.719,28.451-15.162,45.266-15.162c16.835,0,66.445,0,75.311,0c8.906,0,77.861-22.573,93.8-40.385
		C471.694,149.421,488.011,154.76,470.857,187.674z M311.867,182.853c29.068,0,52.797-23.629,52.797-52.937
		c0-29.228-23.689-52.837-52.797-52.837c-29.308,0-52.777,23.629-52.777,52.837C259.13,159.203,282.58,182.853,311.867,182.853z
		 M172.642,182.853c29.188,0,52.897-23.629,52.897-52.937c0-29.228-23.709-52.837-52.897-52.837
		c-29.208,0-52.797,23.629-52.797,52.837C119.864,159.203,143.454,182.853,172.642,182.853z"/>
</g>
<g>
</g>
<g>
</g>
<g>
</g>
<g>
</g>
<g>
</g>
<g>
</g>
<g>
</g>
<g>
</g>
<g>
</g>
<g>
</g>
<g>
</g>
<g>
</g>
<g>
</g>
<g>
</g>
<g>
</g>
</svg>
