<?xml version="1.0" encoding="iso-8859-1"?>
<!-- Generator: Adobe Illustrator 18.1.1, SVG Export Plug-In . SVG Version: 6.00 Build 0)  -->
<svg version="1.1" id="Capa_1" xmlns="http://www.w3.org/2000/svg" xmlns:xlink="http://www.w3.org/1999/xlink" x="0px" y="0px"
	 viewBox="0 0 478.144 478.144" style="enable-background:new 0 0 478.144 478.144;" xml:space="preserve">
<g>
	<path id="Friendster_3_" d="M195.888,82.872c32.934,28.032,45.505,77.323,32.934,118.585
		c-14.166,37.137-77.224,37.197-90.353-1.156c-13.528-38.492-7.671-87.285,21.238-117.429
		C169.768,72.691,186.105,70.957,195.888,82.872z M282.037,45.535c-34.029,15.68-35.902,61.623-34.527,94.338
		c2.49,30.065,11.615,75.112,49.092,76.327c43.354-17.453,42.357-73.358,36.321-112.07C329.216,78.17,313.915,40.913,282.037,45.535
		z M449.295,101.56c-18.29-4.682-45.764-5.858-54.112,15.481c-27.295,55.447-24.884,123.207-64.054,173.494
		c-31.4,38.253-82.185,65.27-132.491,56.802c-26.837-4.483-52.279-19.625-66.325-43.393
		c-28.431-47.059-29.626-108.543-63.178-152.156c-82.643-35.304-69.394,66.724-66.764,83.818c0.179,0.837,0.279,1.574,0.418,2.331
		v0.139l0,0c3.945,24.685,5.22,50.048,17.094,72.462c46.661,96.251,167.318,142.413,267.752,114.321
		c110.655-31.659,187.261-144.744,190.509-258.229C477.646,143.14,473.881,112.099,449.295,101.56z"/>
</g>
<g>
</g>
<g>
</g>
<g>
</g>
<g>
</g>
<g>
</g>
<g>
</g>
<g>
</g>
<g>
</g>
<g>
</g>
<g>
</g>
<g>
</g>
<g>
</g>
<g>
</g>
<g>
</g>
<g>
</g>
</svg>
