<?xml version="1.0" encoding="iso-8859-1"?>
<!-- Generator: Adobe Illustrator 18.1.1, SVG Export Plug-In . SVG Version: 6.00 Build 0)  -->
<svg version="1.1" id="Capa_1" xmlns="http://www.w3.org/2000/svg" xmlns:xlink="http://www.w3.org/1999/xlink" x="0px" y="0px"
	 viewBox="0 0 478.164 478.164" style="enable-background:new 0 0 478.164 478.164;" xml:space="preserve">
<g>
	<path id="Technorati_2_" d="M77.824,14.941c22.414-2.57,45.167-1.016,67.66-1.654c-22.852,28.63-42.596,61.424-45.824,98.582
		c-6.694,57.4,22.733,113.883,67.003,149.088c11.655,6.615,7.451,20.999,7.013,31.898c-2.829,27.435-6.814,54.531-8.826,81.766
		c34.667-20.103,65.588-46.223,101.192-64.592c71.545,13.548,149.586,5.24,212.046-34.547c-0.02,31.419,0.04,63.038,0.06,94.477
		c0.717,36.261-21.398,71.745-54.531,86.329c-15.321,7.631-32.695,9.025-49.41,8.487c-94.936-0.299-189.772,0.08-284.747-0.12
		c-47.597-0.339-89.218-42.975-89.337-90.513c-0.379-87.385,0.259-174.809,0.12-262.273C-2.369,66.343,33.494,23.069,77.824,14.941z
		 M202.903,76.385c-15.899,16.537-27.216,38.492-27.435,61.843c-1.773,31.778,15.939,61.942,40.684,80.81
		c52.339,39.767,128.507,42.975,185.448,10.958c31.36-17.473,57.121-49.769,57.599-86.906c1.255-32.914-17.891-63.994-44.37-82.503
		c-29.487-21.697-66.604-31.14-102.965-29.746C271.679,31.477,230.816,46.699,202.903,76.385z"/>
</g>
<g>
</g>
<g>
</g>
<g>
</g>
<g>
</g>
<g>
</g>
<g>
</g>
<g>
</g>
<g>
</g>
<g>
</g>
<g>
</g>
<g>
</g>
<g>
</g>
<g>
</g>
<g>
</g>
<g>
</g>
</svg>
