<?xml version="1.0" encoding="iso-8859-1"?>
<!-- Generator: Adobe Illustrator 18.1.1, SVG Export Plug-In . SVG Version: 6.00 Build 0)  -->
<svg version="1.1" id="Capa_1" xmlns="http://www.w3.org/2000/svg" xmlns:xlink="http://www.w3.org/1999/xlink" x="0px" y="0px"
	 viewBox="0 0 478.145 478.145" style="enable-background:new 0 0 478.145 478.145;" xml:space="preserve">
<g>
	<path id="Wists" d="M0,13.259c42.756,0,85.492,0,128.347,0c3.766,80.372,15.999,137.273,22.872,211.986
		c8.946-55.786,15.501-142.911,23.689-212.006c42.856,0,85.591,0,128.228,0c1.773,82.663,8.687,127.232,11.994,210.831
		c13.488-62.381,24.685-139.365,34.667-210.831c42.836,0,85.492,0,128.347,0c-21.418,148.709-35.105,304.71-58.336,451.666
		c-50.466,0-100.972,0-151.678,0c-7.033-52.578-15.959-108.205-23.868-172.777c-11.217,56.702-22.414,118.186-34.368,172.777
		c-50.486,0-101.092,0-151.558,0C34.986,318.308,13.608,169.519,0,13.259z"/>
</g>
<g>
</g>
<g>
</g>
<g>
</g>
<g>
</g>
<g>
</g>
<g>
</g>
<g>
</g>
<g>
</g>
<g>
</g>
<g>
</g>
<g>
</g>
<g>
</g>
<g>
</g>
<g>
</g>
<g>
</g>
</svg>
