<?xml version="1.0" encoding="iso-8859-1"?>
<!-- Generator: Adobe Illustrator 18.1.1, SVG Export Plug-In . SVG Version: 6.00 Build 0)  -->
<svg version="1.1" id="Capa_1" xmlns="http://www.w3.org/2000/svg" xmlns:xlink="http://www.w3.org/1999/xlink" x="0px" y="0px"
	 viewBox="0 0 478.165 478.165" style="enable-background:new 0 0 478.165 478.165;" xml:space="preserve">
<g>
	<path id="Yahoo_x21__Messenger" d="M239.082,478.165c132.093,0,239.082-106.989,239.082-239.082S371.175,0,239.082,0
		S0,106.989,0,239.082S106.989,478.165,239.082,478.165z M300.168,108.344c17.234,0,31.001,13.946,31.001,31.081
		c0,17.254-13.747,31.22-31.001,31.22s-31.2-13.986-31.2-31.22C268.968,122.291,282.934,108.344,300.168,108.344z M181.842,108.344
		c17.094,0,31.081,13.946,31.081,31.081c0,17.254-13.986,31.22-31.081,31.22c-17.254,0-31.2-13.986-31.2-31.22
		C150.642,122.291,164.608,108.344,181.842,108.344z M70.988,208.002h336.21v62.301h-0.817
		c-6.734,86.388-79.057,154.268-167.298,154.268c-88.261,0-160.424-67.86-167.397-154.248h-0.697V208.002L70.988,208.002z
		 M384.345,263.489H89.716v-38.193h294.629V263.489z"/>
</g>
<g>
</g>
<g>
</g>
<g>
</g>
<g>
</g>
<g>
</g>
<g>
</g>
<g>
</g>
<g>
</g>
<g>
</g>
<g>
</g>
<g>
</g>
<g>
</g>
<g>
</g>
<g>
</g>
<g>
</g>
</svg>
