<?xml version="1.0" encoding="iso-8859-1"?>
<!-- Generator: Adobe Illustrator 18.1.1, SVG Export Plug-In . SVG Version: 6.00 Build 0)  -->
<svg version="1.1" id="Capa_1" xmlns="http://www.w3.org/2000/svg" xmlns:xlink="http://www.w3.org/1999/xlink" x="0px" y="0px"
	 viewBox="0 0 478.166 478.166" style="enable-background:new 0 0 478.166 478.166;" xml:space="preserve">
<g>
	<path id="Yelp_2_" d="M120.853,21.766C144.96,2.779,191.283-2.62,210.389,1.106c19.107,3.646,29.049,14.345,29.208,27.355
		l1.076,165.764c0.12,13.03-6.635,25.004-15.002,26.618c-8.368,1.554-20.8-6.117-27.614-17.234L111.051,61.434
		C104.356,50.356,90.729,45.415,120.853,21.766z M91.964,337.076l87.604-30.981c12.213-4.403,23.171-16.337,24.386-26.937
		c1.116-10.3-7.75-22.793-19.744-27.594l-92.525-36.6c-12.034-4.841-25.94,6.455-29.567,24.964c0,0-2.231,64.413,0,77.682
		C64.25,330.86,79.751,341.499,91.964,337.076z M244.777,352.656c0.199-13.13-6.774-24.347-15.58-25.263
		c-8.746-0.757-22.673,6.654-31.001,16.636l-61.125,73.358c-8.308,9.982-4.184,33.332,7.969,37.735l63.935,22.155
		c12.054,4.463,33.571-8.687,33.77-21.637L244.777,352.656z M396.575,335.622l-76.546-22.135
		c-12.432-3.526-26.518-3.208-31.26,0.737c-4.822,4.084-3.586,16.656,2.51,28.112l48.514,88.58
		c6.256,11.297,31.22,9.384,38.034-1.693c0,0,29.148-43.035,34.527-59.133C417.733,354.011,409.047,339.108,396.575,335.622z
		 M415.303,211.08c-3.467-11.157-27.475-44.151-40.365-55.427c-13.07-11.277-27.813-9.882-36.121,0.02l-49.39,58.834
		c-8.348,9.802-10.679,25.562-5.1,34.866c5.758,9.125,20.481,14.345,33.053,11.556l85.392-15.779
		C418.192,241.363,418.769,222.237,415.303,211.08z"/>
</g>
<g>
</g>
<g>
</g>
<g>
</g>
<g>
</g>
<g>
</g>
<g>
</g>
<g>
</g>
<g>
</g>
<g>
</g>
<g>
</g>
<g>
</g>
<g>
</g>
<g>
</g>
<g>
</g>
<g>
</g>
</svg>
