<?xml version="1.0" encoding="iso-8859-1"?>
<!-- Generator: Adobe Illustrator 18.1.1, SVG Export Plug-In . SVG Version: 6.00 Build 0)  -->
<svg version="1.1" id="Capa_1" xmlns="http://www.w3.org/2000/svg" xmlns:xlink="http://www.w3.org/1999/xlink" x="0px" y="0px"
	 viewBox="0 0 478.165 478.165" style="enable-background:new 0 0 478.165 478.165;" xml:space="preserve">
<g>
	<path id="Zootool" d="M99.05,339.836c13.209,0,34.986-11.715,48.713-24.247c72.382,139.783,92.704,162.576,142.374,162.576
		c53.873,0,108.304-41.142,108.304-78.439c0-12.572-6.595-23.669-13.15-27.076c-22.733,12.612-43.154,19.505-61.544,19.505
		c-23.629,0-36.938-10.779-112.01-124.064c57.22-50.267,90.831-83.699,134.185-147.056c37.377-25.163,52.14-47.478,52.14-67.78
		c0-17.353-14.823-40.644-33.591-40.644c-9.005,0-16.158,8.707-25.562,23.729C269.297,9.264,236.742,0,200.819,0
		c-33.611,0-60.986,30.025-60.986,64.851c0,19.884,7.949,31.001,20.262,34.866c16.118-9.623,29.347-13.548,37.895-13.548
		c22.255,0,56.663,10.141,99.259,23.211c-21.358,31.539-76.626,89.576-116.294,121.494c-15.102-13.07-24.566-17.911-38.273-17.911
		c-44.091-0.02-62.958,52.299-62.958,84.675C79.645,330.551,87.235,339.836,99.05,339.836z"/>
</g>
<g>
</g>
<g>
</g>
<g>
</g>
<g>
</g>
<g>
</g>
<g>
</g>
<g>
</g>
<g>
</g>
<g>
</g>
<g>
</g>
<g>
</g>
<g>
</g>
<g>
</g>
<g>
</g>
<g>
</g>
</svg>
