<?xml version="1.0" encoding="iso-8859-1"?>
<!-- Generator: Adobe Illustrator 18.1.1, SVG Export Plug-In . SVG Version: 6.00 Build 0)  -->
<svg version="1.1" id="Capa_1" xmlns="http://www.w3.org/2000/svg" xmlns:xlink="http://www.w3.org/1999/xlink" x="0px" y="0px"
	 viewBox="0 0 478.165 478.165" style="enable-background:new 0 0 478.165 478.165;" xml:space="preserve">
<g>
	<path id="AIM_3_" d="M294.659,306.743c49.39,24.307,101.69,68.497,122.829,119.661c-27.076,21.876-30.842,24.665-62.759,51.761
		c-30.742-59.372-68.019-92.087-119.023-105.176C205.82,411.66,157.067,456.687,80.86,477.627
		c-16.935-36.082-21.577-46.123-33.073-73.239c61.006-14.205,83.24-33.631,113.026-90.612
		c-2.072-69.394,15.7-137.592,60.069-164.867c23.171,7.571,61.564,30.443,72.422,33.91c-1.514,7.013,3.347,15.062,22.016,19.067
		c14.285,3.088,47.438,8.029,79.774-21.199c19.605,30.344,35.285,59.691,35.285,59.691s-61.484,61.185-134.324,41.78
		C295.595,291.74,295.117,294.609,294.659,306.743z M303.246,135.918c-37.078,0-68.378-30.443-68.378-67.999
		C234.868,30.543,266.049,0,303.246,0c37.277,0,69.035,30.543,69.035,67.899C372.281,105.455,340.523,135.918,303.246,135.918z"/>
</g>
<g>
</g>
<g>
</g>
<g>
</g>
<g>
</g>
<g>
</g>
<g>
</g>
<g>
</g>
<g>
</g>
<g>
</g>
<g>
</g>
<g>
</g>
<g>
</g>
<g>
</g>
<g>
</g>
<g>
</g>
</svg>
