<?xml version="1.0" encoding="iso-8859-1"?>
<!-- Generator: Adobe Illustrator 18.1.1, SVG Export Plug-In . SVG Version: 6.00 Build 0)  -->
<svg version="1.1" id="Capa_1" xmlns="http://www.w3.org/2000/svg" xmlns:xlink="http://www.w3.org/1999/xlink" x="0px" y="0px"
	 viewBox="0 0 478.165 478.165" style="enable-background:new 0 0 478.165 478.165;" xml:space="preserve">
<g>
	<path id="Bebo_3_" d="M262.931,478.165h-47.737c-105.495,0-191.346-85.89-191.346-191.346V47.836C23.868,21.418,45.266,0,71.705,0
		c26.379,0,47.836,21.418,47.836,47.836v239.003c0,52.738,42.935,95.673,95.673,95.673h47.737
		c52.758-0.04,95.673-37.516,95.673-83.659c0-47.159-25.681-83.639-47.737-83.639h-95.653c-26.538,0-47.836-21.458-47.836-47.836
		c0-26.419,21.318-47.816,47.836-47.816h95.653c79.037,0,143.429,80.352,143.429,179.312
		C454.316,397.793,368.426,478.165,262.931,478.165z"/>
</g>
<g>
</g>
<g>
</g>
<g>
</g>
<g>
</g>
<g>
</g>
<g>
</g>
<g>
</g>
<g>
</g>
<g>
</g>
<g>
</g>
<g>
</g>
<g>
</g>
<g>
</g>
<g>
</g>
<g>
</g>
</svg>
