<?xml version="1.0" encoding="iso-8859-1"?>
<!-- Generator: Adobe Illustrator 18.1.1, SVG Export Plug-In . SVG Version: 6.00 Build 0)  -->
<svg version="1.1" id="Capa_1" xmlns="http://www.w3.org/2000/svg" xmlns:xlink="http://www.w3.org/1999/xlink" x="0px" y="0px"
	 viewBox="0 0 478.165 478.165" style="enable-background:new 0 0 478.165 478.165;" xml:space="preserve">
<g>
	<path id="Behance_3_" d="M431.842,132.362h-119.88v-29.706h119.88V132.362z M232.288,254.434
		c7.75,12.034,11.496,26.578,11.496,43.533c0,17.692-4.284,33.531-13.13,47.538c-5.618,9.304-12.632,16.975-21.039,23.39
		c-9.543,7.312-20.76,12.193-33.631,14.903c-12.97,2.769-26.877,4.124-41.999,4.124H0V90.244h143.649
		c36.321,0.578,61.882,11.097,77.044,31.718c9.105,12.612,13.687,27.813,13.687,45.426c0,18.19-4.602,32.774-13.747,43.892
		c-5.12,6.136-12.751,11.874-22.673,16.875C213.122,233.673,224.558,242.34,232.288,254.434z M68.637,207.534h62.879
		c12.99,0,23.47-2.431,31.499-7.332c8.089-4.881,12.074-13.707,12.074-26.16c0-13.927-5.359-23.071-16.038-27.494
		c-9.145-3.028-20.84-4.662-35.085-4.662H68.637V207.534z M181.165,293.723c0-15.481-6.296-26.16-18.907-31.798
		c-7.053-3.307-17.035-5.021-29.806-5.1H68.637v79.296h62.839c12.891,0,22.912-1.793,30.124-5.18
		C174.63,324.405,181.165,311.953,181.165,293.723z M476.252,245.309c1.474,9.683,2.032,23.968,1.893,42.337H323.04
		c0.677,21.478,8.129,36.38,22.155,44.868c8.408,5.459,18.688,8.209,30.742,8.209c12.651,0,22.912-3.267,30.901-9.743
		c4.523-3.646,8.248-8.388,11.595-14.823h56.862c-1.674,12.651-8.368,25.582-20.78,38.652
		c-19.107,20.621-45.804,30.961-80.073,30.961c-28.411,0-53.535-8.627-75.132-26.18c-21.557-17.393-32.615-45.864-32.615-85.153
		c0-37.058,9.763-65.489,29.387-85.133c19.605-19.764,44.908-29.547,76.188-29.547c18.609,0,35.344,3.347,50.227,9.962
		c14.943,6.694,27.136,17.214,36.639,31.539C467.924,214.029,473.602,228.693,476.252,245.309z M420.267,250.828
		c-0.996-14.803-6.037-26-14.903-33.571c-8.866-7.71-20.023-11.615-33.073-11.615c-14.205,0-25.343,4.144-33.232,12.153
		c-7.89,8.129-12.751,19.107-14.863,32.993L420.267,250.828L420.267,250.828z"/>
</g>
<g>
</g>
<g>
</g>
<g>
</g>
<g>
</g>
<g>
</g>
<g>
</g>
<g>
</g>
<g>
</g>
<g>
</g>
<g>
</g>
<g>
</g>
<g>
</g>
<g>
</g>
<g>
</g>
<g>
</g>
</svg>
