<?xml version="1.0" encoding="iso-8859-1"?>
<!-- Generator: Adobe Illustrator 18.1.1, SVG Export Plug-In . SVG Version: 6.00 Build 0)  -->
<svg version="1.1" id="Capa_1" xmlns="http://www.w3.org/2000/svg" xmlns:xlink="http://www.w3.org/1999/xlink" x="0px" y="0px"
	 viewBox="0 0 478.165 478.165" style="enable-background:new 0 0 478.165 478.165;" xml:space="preserve">
<g>
	<path id="Facebook_Places_3_" d="M396.02,119.023c-1.813-6.435-5.14-13.229-7.671-19.147C357.727,26.458,290.884,0,236.831,0
		C164.608,0,84.974,48.514,74.375,148.39v20.422c0,0.797,0.319,8.428,0.697,12.293c5.957,47.577,43.533,98.183,71.565,145.8
		c30.204,50.925,61.544,101.271,92.565,151.259c19.147-32.635,38.173-65.907,56.842-97.785c5.1-9.344,10.998-18.688,16.098-27.475
		c3.487-6.017,9.942-11.914,12.871-17.592c30.244-55.328,78.778-110.854,78.778-165.724v-22.494
		C403.79,141.158,396.398,120.298,396.02,119.023z M238.126,221.43c-21.238,0-44.429-10.579-55.945-39.927
		c-1.654-4.642-1.534-14.046-1.534-14.903v-13.09c0-37.436,31.738-54.471,59.352-54.471c34.049,0,60.229,27.295,60.229,61.265
		C300.228,194.254,272.195,221.43,238.126,221.43z"/>
</g>
<g>
</g>
<g>
</g>
<g>
</g>
<g>
</g>
<g>
</g>
<g>
</g>
<g>
</g>
<g>
</g>
<g>
</g>
<g>
</g>
<g>
</g>
<g>
</g>
<g>
</g>
<g>
</g>
<g>
</g>
</svg>
