<?xml version="1.0" encoding="iso-8859-1"?>
<!-- Generator: Adobe Illustrator 18.1.1, SVG Export Plug-In . SVG Version: 6.00 Build 0)  -->
<svg version="1.1" id="Capa_1" xmlns="http://www.w3.org/2000/svg" xmlns:xlink="http://www.w3.org/1999/xlink" x="0px" y="0px"
	 viewBox="0 0 478.165 478.165" style="enable-background:new 0 0 478.165 478.165;" xml:space="preserve">
<g>
	<path id="Dailybooth" d="M239.082,478.165c57.061,0,109.639-20.063,150.721-53.355l83.778,30.124l-34.767-84.177v-0.04
		c24.825-37.735,39.349-83.041,39.349-131.635C478.165,106.989,371.175,0,239.082,0S0,106.989,0,239.082
		S106.989,478.165,239.082,478.165z M106.87,176.921l49.769-11.795c14.066-27.196,42.517-45.824,75.231-45.824
		c18.828,0,36.161,6.057,50.167,16.397l48.135-11.277c11.536-2.73,23.191,5.579,26.12,18.29l32.635,138.767
		c2.929,12.751-3.746,25.323-15.261,28.012l-223.482,52.399c-11.277,2.769-22.952-5.559-25.96-18.27L91.588,204.814
		C88.66,192.143,95.454,179.551,106.87,176.921z M243.964,301.144c33.312,0,60.129-26.996,60.129-60.229
		c0-33.352-26.817-60.388-60.129-60.388c-33.352,0-60.249,27.036-60.249,60.388C183.715,274.128,210.632,301.144,243.964,301.144z
		 M243.964,202.403c21.258,0,38.512,17.254,38.512,38.532c0,21.139-17.234,38.373-38.512,38.373
		c-21.238,0-38.512-17.234-38.512-38.373C205.451,219.657,222.725,202.403,243.964,202.403z"/>
</g>
<g>
</g>
<g>
</g>
<g>
</g>
<g>
</g>
<g>
</g>
<g>
</g>
<g>
</g>
<g>
</g>
<g>
</g>
<g>
</g>
<g>
</g>
<g>
</g>
<g>
</g>
<g>
</g>
<g>
</g>
</svg>
