<?xml version="1.0" encoding="iso-8859-1"?>
<!-- Generator: Adobe Illustrator 18.1.1, SVG Export Plug-In . SVG Version: 6.00 Build 0)  -->
<svg version="1.1" id="Capa_1" xmlns="http://www.w3.org/2000/svg" xmlns:xlink="http://www.w3.org/1999/xlink" x="0px" y="0px"
	 viewBox="0 0 478.175 478.175" style="enable-background:new 0 0 478.175 478.175;" xml:space="preserve">
<g>
	<path id="Designmoo_3_" d="M339.791,341.088c-3.008,0-4.104,1.195-6.435,3.526c-4.244,5.24-12.034,15.182-25.064,27.973
		c-21.458,21.597-36.141,32.256-45.984,32.256l-2.251-0.159c-6.993-1.713-8.049-7.651-7.949-13.468
		c0.159-7.551,2.71-14.484,4.602-21.458c15.959-49.092,39.429-94.418,59.571-141.696c10.998-25.044,23.629-49.57,32.236-75.231
		c3.726-9.304,6.296-19.784,6.376-29.666c0.379-16.337-10.48-26.199-23.868-29.128l-1.933-0.319c-3.068,0-1.355,3.307-4.084,14.823
		c-1.355,7.611-3.785,15.122-6.216,22.713c-11.177,35.583-28.77,67.7-44.35,99.159l-4.722,9.324l-0.677-3.626
		c-3.008-18.031-22.553-29.009-40.564-29.009c-25.602,0-46.82,15.779-64.632,33.173c-23.091,22.693-41.182,53.554-50.407,81.587
		c-16.696,53.594-22.115,120.796,38.273,121.773c16.297,0,35.723-11.615,54.172-34.886l3.487-4.124c0,0.658-0.02,2.331-0.02,3.526
		c-0.418,16.935,9.304,34.986,27.275,34.986c20.94,0,44.41-18.668,80.69-58.854c10.081-11.117,18.409-21.577,23.908-30.842
		c1.096-3.048,2.371-5.22,2.371-6.993C343.736,342.901,341.943,341.088,339.791,341.088z M213.177,362.745
		c-8.906,15.6-21.976,29.626-31.539,37.954c-5.579,4.323-10.699,6.356-15.281,6.356c-11.137,0-18.688-11.635-18.031-28.65
		c1.514-43.035,21.418-87.365,50.646-121.673c8.846-10.002,18.449-22.274,32.934-22.274c12.293,0,18.449,7.631,18.23,21.557
		C249.398,293.83,233.021,330.13,213.177,362.745z M194.03,80.09l26.359-6.894c3.925-1.036,7.89-5.061,8.866-8.946l6.874-26.419
		c0.936-3.865,2.71-3.865,3.666,0l6.834,26.419c1.116,3.885,5.061,7.89,8.886,8.866l26.419,6.953c3.785,0.976,3.785,2.67,0,3.666
		l-26.458,6.894c-3.766,1.056-7.73,5.041-8.746,8.906l-6.933,26.458c-0.956,3.825-2.65,3.825-3.586,0l-6.953-26.458
		c-0.976-3.865-4.961-7.85-8.866-8.906l-26.359-6.854C190.205,82.78,190.205,81.027,194.03,80.09z M118.122,269.862l-16.357-62.779
		c-2.749-10.32-13.309-20.999-23.729-23.729l-70.31-18.429c-10.3-2.67-10.3-7.073,0-9.842l70.35-18.409
		c10.38-2.769,20.94-13.409,23.669-23.769l18.27-70.609c2.789-10.34,7.153-10.34,9.902,0l18.35,70.609
		c2.73,10.36,13.309,20.979,23.629,23.689l70.39,18.429c10.281,2.73,10.281,7.113,0,9.802l-70.29,18.489
		c-10.38,2.749-20.96,13.409-23.689,23.749l-8.408,32.216C131.968,248.603,124.577,258.804,118.122,269.862z M431.937,288.988
		l41.62,10.858c6.156,1.713,6.156,4.224,0,5.917l-41.62,10.838c-6.136,1.554-12.532,7.93-14.006,14.046l-10.898,41.939
		c-1.693,6.117-4.204,6.117-5.917,0l-10.818-41.939c-1.634-6.117-7.89-12.492-14.006-14.046l-41.859-10.878
		c-5.997-1.693-5.997-4.204,0-5.877l41.859-10.878c6.136-1.674,12.353-7.91,14.006-14.026l10.818-41.919
		c1.713-6.097,4.224-6.097,5.917,0l10.898,41.919C419.405,281.059,425.801,287.275,431.937,288.988z"/>
</g>
<g>
</g>
<g>
</g>
<g>
</g>
<g>
</g>
<g>
</g>
<g>
</g>
<g>
</g>
<g>
</g>
<g>
</g>
<g>
</g>
<g>
</g>
<g>
</g>
<g>
</g>
<g>
</g>
<g>
</g>
</svg>
