<?xml version="1.0" encoding="iso-8859-1"?>
<!-- Generator: Adobe Illustrator 18.1.1, SVG Export Plug-In . SVG Version: 6.00 Build 0)  -->
<svg version="1.1" id="Capa_1" xmlns="http://www.w3.org/2000/svg" xmlns:xlink="http://www.w3.org/1999/xlink" x="0px" y="0px"
	 viewBox="0 0 478.168 478.168" style="enable-background:new 0 0 478.168 478.168;" xml:space="preserve">
<g>
	<path id="deviantART_3_" d="M161.623,152.456c-1.434,0.239-2.61,0.518-4.005,0.737l-23.032-46.96l-68.178,7.75l27.833,57.24
		c-143.928,59.751-80.172,200.71-80.172,200.71l219.478-63.616l-60.269-123.127c108.264-31.32,198.578,32.695,198.578,32.695
		l-74.434,20.242l-21.478-40.126c-20.123-3.746-43.174-4.901-67.66-0.757l50.785,103.782l219.099-63.596
		C478.168,237.43,398.772,111.852,161.623,152.456z M73.461,298.874c0,0-21.159-46.88,40.425-87.146l32.774,67.381L73.461,298.874z"
		/>
</g>
<g>
</g>
<g>
</g>
<g>
</g>
<g>
</g>
<g>
</g>
<g>
</g>
<g>
</g>
<g>
</g>
<g>
</g>
<g>
</g>
<g>
</g>
<g>
</g>
<g>
</g>
<g>
</g>
<g>
</g>
</svg>
