<?xml version="1.0" encoding="iso-8859-1"?>
<!-- Generator: Adobe Illustrator 18.1.1, SVG Export Plug-In . SVG Version: 6.00 Build 0)  -->
<svg version="1.1" id="Capa_1" xmlns="http://www.w3.org/2000/svg" xmlns:xlink="http://www.w3.org/1999/xlink" x="0px" y="0px"
	 viewBox="0 0 478.165 478.165" style="enable-background:new 0 0 478.165 478.165;" xml:space="preserve">
<g>
	<path id="Digg_3_" d="M85.014,69.085v84.994H0v3.566v40.146v81.567l0,0v44.728l0,0l0,0h49.769l0,0h33.77l0,0h49.311V198.648
		v-47.139V69.065L85.014,69.085L85.014,69.085z M47.836,281.589v-85.014h37.177v85.014H47.836z M143.41,154.079h47.856v170.007
		H143.41V154.079z M143.41,69.085h47.856v47.836H143.41V69.085z M339.995,154.079L339.995,154.079H212.484v44.589l0,0v125.399
		h79.754v37.257h-79.754v47.757h79.774h47.737v-83.121v-48.095V154.079L339.995,154.079z M260.44,281.589v-85.014h31.818v85.014
		H260.44z M478.165,154.079H350.654l0,0l0,0v125.279v44.748h85.034v37.257h-85.034V409.1h83.639h43.872v-50.944v-31.639v-47.159
		v-80.69l0,0V154.079z M435.668,281.589h-37.257v-85.014h37.257V281.589z"/>
</g>
<g>
</g>
<g>
</g>
<g>
</g>
<g>
</g>
<g>
</g>
<g>
</g>
<g>
</g>
<g>
</g>
<g>
</g>
<g>
</g>
<g>
</g>
<g>
</g>
<g>
</g>
<g>
</g>
<g>
</g>
</svg>
