<?xml version="1.0" encoding="iso-8859-1"?>
<!-- Generator: Adobe Illustrator 18.1.1, SVG Export Plug-In . SVG Version: 6.00 Build 0)  -->
<svg version="1.1" id="Capa_1" xmlns="http://www.w3.org/2000/svg" xmlns:xlink="http://www.w3.org/1999/xlink" x="0px" y="0px"
	 viewBox="0 0 478.152 478.152" style="enable-background:new 0 0 478.152 478.152;" xml:space="preserve">
<g>
	<path id="Ember_3_" d="M433.946,164.568c-6.933,25.901-34.448,38.871-34.448,38.871C336.958,44.489,255.132,0,255.132,0
		c-3.507,51.004-65.09,91.13-65.09,91.13l-42.716-22.474c6.874,36.141-15.261,69.932-15.261,69.932
		c-88.56,57.878-54.451,176.841-54.451,176.841l-37.775-17.134C67.95,501.933,239.831,477.208,239.831,477.208
		C484.751,475.475,433.946,164.568,433.946,164.568z M233.256,438.856c-146.976-1.016-116.453-187.62-116.453-187.62
		c4.124,15.501,20.581,23.291,20.581,23.291c37.576-95.254,86.647-122.032,86.647-122.032c2.012,30.523,39.09,54.69,39.09,54.69
		l25.662-13.528c-4.224,21.717,9.005,41.939,9.005,41.939c53.256,34.866,32.734,106.212,32.734,106.212l22.633-10.241
		C336.36,453.719,233.256,438.856,233.256,438.856z"/>
</g>
<g>
</g>
<g>
</g>
<g>
</g>
<g>
</g>
<g>
</g>
<g>
</g>
<g>
</g>
<g>
</g>
<g>
</g>
<g>
</g>
<g>
</g>
<g>
</g>
<g>
</g>
<g>
</g>
<g>
</g>
</svg>
