<?xml version="1.0" encoding="iso-8859-1"?>
<!-- Generator: Adobe Illustrator 18.1.1, SVG Export Plug-In . SVG Version: 6.00 Build 0)  -->
<svg version="1.1" id="Capa_1" xmlns="http://www.w3.org/2000/svg" xmlns:xlink="http://www.w3.org/1999/xlink" x="0px" y="0px"
	 viewBox="0 0 478.205 478.205" style="enable-background:new 0 0 478.205 478.205;" xml:space="preserve">
<g>
	<path id="Evernote_3_" d="M131.475,103.025l-77.403-0.06L151.2,5.18v78.857L131.475,103.025z M406.121,64.233
		c-8.288-14.285-51.522-30.682-73.956-30.682c-22.354,0-57.878,0-57.878,0S255.878,0,212.186,0
		c-43.633,0-40.764,19.485-40.764,36.121v67.162l-19.684,20.92H60.249c0,0-25.741,17.015-25.741,53.794
		c0,36.819,11.416,165.066,88.142,177.001c90.752,14.006,106.272-28.092,106.272-33.193c0-21.458,0.598-53.794,0.598-53.794
		s26.698,50.925,66.684,50.925c40.106,0,63.516,22.932,63.516,46.78c0,23.689,0,43.971,0,43.971s-1.534,27.395-25.163,27.395
		c-23.57,0-50.287,0-50.287,0s-16.636-12.891-16.636-30.603c0-17.851,8.208-22.673,17.553-22.673c9.504,0,17.134,1.096,17.134,1.096
		v-37.476c0,0-75.968-0.478-75.968,57.599c0,58.276,39.847,73.179,71.625,73.179c31.878,0,51.901,0,51.901,0
		s93.82-12.054,93.82-197.163C443.697,95.713,414.489,78.459,406.121,64.233z M312.939,230.256c0,0,4.543-30.543,22.195-30.543
		c17.851,0,42.158,40.764,42.158,40.764S321.785,230.256,312.939,230.256z"/>
</g>
<g>
</g>
<g>
</g>
<g>
</g>
<g>
</g>
<g>
</g>
<g>
</g>
<g>
</g>
<g>
</g>
<g>
</g>
<g>
</g>
<g>
</g>
<g>
</g>
<g>
</g>
<g>
</g>
<g>
</g>
</svg>
