<?xml version="1.0" encoding="iso-8859-1"?>
<!-- Generator: Adobe Illustrator 18.1.1, SVG Export Plug-In . SVG Version: 6.00 Build 0)  -->
<svg version="1.1" id="Capa_1" xmlns="http://www.w3.org/2000/svg" xmlns:xlink="http://www.w3.org/1999/xlink" x="0px" y="0px"
	 viewBox="0 0 478.134 478.134" style="enable-background:new 0 0 478.134 478.134;" xml:space="preserve">
<g>
	<path id="Folkd" d="M306.613,140.243c-3.148,3.267-10.579,2.331-17.035,2.371c-1.674,5.399-2.052,12.114-4.782,16.616
		c10.739,8.428,31.659,6.953,41.102,16.576c20.442-7.551,4.204-23.111,16.875-35.544c19.445-2.351,23.709,10.002,28.949,21.458
		c-4.582,4.104-15.899,1.674-24.028,2.351c-4.483,3.546-5.798,10.161-9.683,14.245c4.303,9.882,16.337,12.273,19.226,23.649
		c24.805-6.336,50.446-12.094,77.403-16.596c7.013-7.272,5.34-23.111,16.875-26.08c18.808,3.646,24.884,19.784,26.618,40.285
		c-9.942,17.792-35.922,10.32-43.493-4.662c-25.104,3.785-48.972,8.866-72.661,14.225c-1.873,5.459,1.793,21.537-2.371,30.842
		c15.839,10.719,21.996-8.368,36.36-7.192c8.049,8.587,8.388,40.505-9.703,38.014c-10.34-0.897-11.396-10.799-12.133-21.418
		c-7.192,1.773-8.607-2.411-14.484-2.371c-10.938,6.555-16.477,18.589-28.929,23.789c1.654,21.039,25.004,6.475,36.301,16.736
		c-0.996,17.015-13.648,22.912-31.38,23.55c-1.255-14.166,3.726-25.642-12.094-33.173c-15.999,2.371-23.41,13.448-38.711,16.736
		c-0.159,7.412,2.909,11.277,4.762,16.477c4.423,3.048,19.983-3.487,24.207,4.941c-0.06,18.27-25.124,31.021-38.652,21.179
		c-1.036-10.38,6.515-12.572,9.683-18.828c-4.622-5.08-6.993-12.193-9.703-19.087c-14.963,5.738-28.371,13.15-48.255,14.166
		c0.04,5.638-4.164,6.993-2.49,14.325c-0.817,8.866,11.675,4.323,12.094,11.775c4.144,21.537-30.324,24.805-36.181,9.623
		c-0.458-14.823,17.712-11.157,12.113-30.822c-12.133-4.702-32.695-1.255-43.453-7.292c-6.475,2.351-6.535,11.077-12.094,14.345
		c1.136,6.714,8.487,7.491,7.272,16.477c-15.859,6.336-39.488,1.315-36.281-18.868c9.145-10.599,25.502-1.355,31.36-16.716
		c-9.543-11.217-19.884-21.517-24.088-37.914c-36.221,7.93-65.608,22.514-99.1,33.193c-3.148,7.949-3.248,18.868-9.543,23.769
		c-10.181,2.411-10.679,0.538-21.816,0c-9.563-14.524-4.303-46.143,14.484-47.518c10.44-2.331,6.993,8.866,14.464,9.623
		c34.448-8.248,64.632-20.481,99-28.471c-7.292-42.557,54.81-72.322-14.464-66.644c-6.674-20.86,6.415-36.918,19.326-35.544
		c21.756,2.351,4.921,29.467,21.756,38.054c15.62-8.567,26.379-21.617,45.944-26.12c1.434-7.69-1.614-11.097-2.471-16.696
		c-1.454-5.618-14.763,0.418-16.835-4.722c0-5.539,0-11.018,0-16.596c7.87-7.232,28.391-6.037,33.81,2.371
		c1.913,10.699-4.244,13.269-12.113,14.245c0.677,7.292,5.3,10.719,7.232,16.616c15.381-6.316,38.731-4.562,60.328-4.702
		c3.586-2.889,4.582-8.169,4.981-14.285c1.833-8.926-12.95-1.654-9.723-11.894C273.042,107.867,306.653,122.292,306.613,140.243z
		 M325.859,247.013c11.117-6.495,6.376-28.57,7.332-45.107C303.385,177.62,283.84,247.989,325.859,247.013z M219.587,273.173
		c22.175,2.909,53.076-21.039,50.705-42.756c-2.331-20.96-43.513-39.847-67.68-28.491
		C171.711,216.61,195.121,269.905,219.587,273.173z"/>
</g>
<g>
</g>
<g>
</g>
<g>
</g>
<g>
</g>
<g>
</g>
<g>
</g>
<g>
</g>
<g>
</g>
<g>
</g>
<g>
</g>
<g>
</g>
<g>
</g>
<g>
</g>
<g>
</g>
<g>
</g>
</svg>
