<?xml version="1.0" encoding="iso-8859-1"?>
<!-- Generator: Adobe Illustrator 18.1.1, SVG Export Plug-In . SVG Version: 6.00 Build 0)  -->
<svg version="1.1" id="Capa_1" xmlns="http://www.w3.org/2000/svg" xmlns:xlink="http://www.w3.org/1999/xlink" x="0px" y="0px"
	 viewBox="0 0 478.163 478.163" style="enable-background:new 0 0 478.163 478.163;" xml:space="preserve">
<g>
	<path id="Github_3_" d="M369.271,1.429c-42.836,26.797-86.827,4.244-118.645,0C110.345-16.941,65.776,146.671,168.023,212.28
		c-26.359,13.707-24.665,82.942,3.546,93.003c-66.405,7.551-78.758,101.052-43.154,139.206c43.354,46.362,176.542,43.413,215.672,0
		c27.176-30.304,30.921-92.764,7.093-121.414c-21.637-26.219-131.057-30.304-129.363-71.506
		c1.275-28.869,40.664-24.366,64.791-35.803c44.987-21.517,71.545-86.03,53.794-135.759c10.181-1.893,18.668-5.28,28.869-7.053
		L369.271,1.429L369.271,1.429z M196.773,151.533c-52.718-114.6,120.796-106.332,68.298,0
		C247.717,164.383,213.668,165.599,196.773,151.533z M293.741,376.788c4.622,51.363-99.319,53.654-111.412,17.792
		c-10.101-30.244,2.371-38.711,32.256-46.302C248.435,339.392,290.533,342.34,293.741,376.788z"/>
</g>
<g>
</g>
<g>
</g>
<g>
</g>
<g>
</g>
<g>
</g>
<g>
</g>
<g>
</g>
<g>
</g>
<g>
</g>
<g>
</g>
<g>
</g>
<g>
</g>
<g>
</g>
<g>
</g>
<g>
</g>
</svg>
