<?xml version="1.0" encoding="iso-8859-1"?>
<!-- Generator: Adobe Illustrator 18.1.1, SVG Export Plug-In . SVG Version: 6.00 Build 0)  -->
<svg version="1.1" id="Capa_1" xmlns="http://www.w3.org/2000/svg" xmlns:xlink="http://www.w3.org/1999/xlink" x="0px" y="0px"
	 viewBox="0 0 478.165 478.165" style="enable-background:new 0 0 478.165 478.165;" xml:space="preserve">
<g>
	<path id="Google_Talk_3_" d="M478.165,190.549C478.165,85.253,371.155,0,239.102,0C106.989,0,0,85.253,0,190.549
		c0,91.429,80.81,167.696,188.676,186.285c-2.411,30.443-8.707,65.329-22.016,101.331c52.757-14.046,98.701-61.205,130.778-102.766
		C401.18,354.519,478.165,279.706,478.165,190.549z M341.708,307.819c-3.228,0.777-6.475,1.255-9.743,1.395
		c-3.606,0.458-6.973,0.797-10.579,0.797c-2.949,0-5.838-0.379-8.986-0.478c37.456-26.976,62.002-70.171,62.002-118.963
		c0-53.654-29.427-100.375-73.319-126.335c6.595-1.335,13.548-2.092,20.302-2.092c63.496,0,115.118,55.387,115.118,123.944
		C436.505,247.032,395.482,297.558,341.708,307.819z"/>
</g>
<g>
</g>
<g>
</g>
<g>
</g>
<g>
</g>
<g>
</g>
<g>
</g>
<g>
</g>
<g>
</g>
<g>
</g>
<g>
</g>
<g>
</g>
<g>
</g>
<g>
</g>
<g>
</g>
<g>
</g>
</svg>
