<?xml version="1.0" encoding="iso-8859-1"?>
<!-- Generator: Adobe Illustrator 18.1.1, SVG Export Plug-In . SVG Version: 6.00 Build 0)  -->
<svg version="1.1" id="Capa_1" xmlns="http://www.w3.org/2000/svg" xmlns:xlink="http://www.w3.org/1999/xlink" x="0px" y="0px"
	 viewBox="0 0 478.178 478.178" style="enable-background:new 0 0 478.178 478.178;" xml:space="preserve">
<g>
	<path id="Gowalla_3_" d="M288.521,215.356c-2.749,29.547,5.24,69.633-4.104,92.485c-136.735,16.198-118.226-276.977,0-253.507
		c-20.262,94.338,89.995,89.676,92.525,24.207c1.893-49.171-53.614-72.063-84.516-76.546
		C200.08-11.295,84.265,41.762,71.215,163.016c-12.91,120.458,34.488,158.352,124.701,201.267
		c-46.083,132.033,126.415,139.405,185.09,72.422c43.892-50.108,17.413-140.999,28.052-221.271
		C368.912,215.356,328.706,215.356,288.521,215.356z M252.16,412.618c-37.357-21.796-1.913-69.374,28.132-72.601
		c4.662-0.578,7.272,0.936,8.228,4.144C291.908,382.474,281.229,406.741,252.16,412.618z"/>
</g>
<g>
</g>
<g>
</g>
<g>
</g>
<g>
</g>
<g>
</g>
<g>
</g>
<g>
</g>
<g>
</g>
<g>
</g>
<g>
</g>
<g>
</g>
<g>
</g>
<g>
</g>
<g>
</g>
<g>
</g>
</svg>
