<?xml version="1.0" encoding="iso-8859-1"?>
<!-- Generator: Adobe Illustrator 18.1.1, SVG Export Plug-In . SVG Version: 6.00 Build 0)  -->
<svg version="1.1" id="Capa_1" xmlns="http://www.w3.org/2000/svg" xmlns:xlink="http://www.w3.org/1999/xlink" x="0px" y="0px"
	 viewBox="0 0 478.163 478.163" style="enable-background:new 0 0 478.163 478.163;" xml:space="preserve">
<g>
	<path id="Hyves_3_" d="M372.062,0.011c10.818,0,21.916,0,32.774,0c11.336-0.697,28.929,32.216,24.227,46.243
		c-3.068,9.284-27.554,13.488-32.954,20.442c-9.364,11.775-5.738,48.574-5.738,73.339c0,65.13,0,128.367,0,197.621
		c0,11.097-1.395,33.153,1.933,36.759c3.626,3.387,16.258,1.116,21.159,2.849c11.635,3.746,25.901,26.199,16.656,41.501
		c-2.49,4.244-14.325,6.714-22.354,10.44c-19.147,9.225-51.921,19.585-79.077,17.294c-15.66-0.996-40.186-23.55-37.775-40.325
		c0.996-7.272,7.053-11.058,15.461-14.425c5.638-2.251,18.33-0.956,23.251-5.658c6.097-6.057,1.156-31.22,0.697-45.266
		c-0.1-8.727,0.339-14.783,0-25.203c0-7.471,0.837-20.94-0.697-23.271c-4.204-5.24-39.967-0.996-47.478,0
		c-36.022,5.24-55.348,7.91-85.034,17.314c-8.946,2.889-29.845,6.495-35.783,15.501c-6.276,9.603-1.175,41.481,0,55.985
		c0.538,6.854-2.032,19.565,0.996,24.187c3.945,6.196,20.262,3.327,24.048,4.682c9.344,3.267,23.091,17.732,21.438,31.838
		c-3.208,24.705-62.958,33.511-91.967,35.803c-11.237,0.638-15.441,0.976-23.191-0.897c-12.871-3.666-29.367-20.94-28.032-33.97
		c1.016-10.4,15.879-16.537,26.199-20.242c3.267-1.315,9.583-1.753,11.376-3.825c4.025-4.622,1.514-24.685,0-36.699
		c-4.343-35.444-5.2-78.12-5.778-114.799c-0.618-43.354-2.889-73.657-2.889-118.704c0-12.632,1.156-33.392-1.893-37.596
		c-3.686-4.503-15.361-3.746-22.314-6.615c-11.974-5.3-17.991-13.01-24.247-28.032c0-2.809,0-5.798,0-8.587
		c10.44-20.322,36.58-24.566,64.791-30.065c39.787-7.531,78.479-14.963,89.955,18.369c2.311,6.615,3.746,17.832,0,24.068
		c-6.874,11.516-33.85,9.065-39.508,18.449c-2.59,3.885-2.072,18.27-2.072,30.842c0,37.576-4.841,63.775-1.873,102.228
		c0.299,5.599,2.132,23.251,5.838,25.104c5.658,2.909,15.939-1.873,21.238-2.809c37.875-8.308,60.488-14.126,102.347-18.529
		c10.779-1.195,37.217-1.395,42.497-5.698c8.228-6.694,3.188-26.319,1.933-35.703c-3.307-28.889-2.909-49.291,0-77.224
		c1.255-10.54,4.582-30.921-0.717-36.679c-3.626-3.566-17.214-4.025-21.358-5.798c-14.564-6.097-32.177-21.179-26.12-42.417
		c1.474-5.698,10.3-10.34,16.317-13.389C320.201,7.044,345.922,5.33,372.062,0.011z"/>
</g>
<g>
</g>
<g>
</g>
<g>
</g>
<g>
</g>
<g>
</g>
<g>
</g>
<g>
</g>
<g>
</g>
<g>
</g>
<g>
</g>
<g>
</g>
<g>
</g>
<g>
</g>
<g>
</g>
<g>
</g>
</svg>
