<?xml version="1.0" encoding="iso-8859-1"?>
<!-- Generator: Adobe Illustrator 18.1.1, SVG Export Plug-In . SVG Version: 6.00 Build 0)  -->
<svg version="1.1" id="Capa_1" xmlns="http://www.w3.org/2000/svg" xmlns:xlink="http://www.w3.org/1999/xlink" x="0px" y="0px"
	 viewBox="0 0 478.165 478.165" style="enable-background:new 0 0 478.165 478.165;" xml:space="preserve">
<g>
	<path id="Kik" d="M39.847,429.173V49.012C39.847,21.936,59.093,0,82.882,0s43.174,21.936,43.174,49.012v213.919l107.667-115.915
		c12.552-13.668,22.693-21.936,38.014-21.936c23.33,0,37.914,21.238,37.914,43.772c0,16.776-7.949,29.646-19.724,42.616
		l-68.079,66.306l81.228,124.303c7.372,11.635,10.739,20.621,10.739,31.678c0,26.299-18.688,44.41-40.265,44.41
		c-17.074,0-27.235-6.475-37.476-22.474l-75.411-118.047l-34.587,35.484v56.045c-0.02,27.076-19.386,48.992-43.194,48.992
		S39.847,456.249,39.847,429.173z M386.536,371.295c28.55,0,51.781-23.35,51.781-51.941c0-28.849-23.231-52.2-51.781-52.2
		c-28.73,0-51.781,23.35-51.781,52.2C334.755,347.944,357.807,371.295,386.536,371.295z"/>
</g>
<g>
</g>
<g>
</g>
<g>
</g>
<g>
</g>
<g>
</g>
<g>
</g>
<g>
</g>
<g>
</g>
<g>
</g>
<g>
</g>
<g>
</g>
<g>
</g>
<g>
</g>
<g>
</g>
<g>
</g>
</svg>
