<?xml version="1.0" encoding="iso-8859-1"?>
<!-- Generator: Adobe Illustrator 18.1.1, SVG Export Plug-In . SVG Version: 6.00 Build 0)  -->
<svg version="1.1" id="Capa_1" xmlns="http://www.w3.org/2000/svg" xmlns:xlink="http://www.w3.org/1999/xlink" x="0px" y="0px"
	 viewBox="0 0 478.165 478.165" style="enable-background:new 0 0 478.165 478.165;" xml:space="preserve">
<g>
	<path id="last.fm_3_" d="M382.811,380.948c-49.869-0.339-76.447-24.705-94.796-68.039l-5.399-11.755l-45.426-104.34
		c-15.082-36.918-52.499-61.902-94.716-61.902c-57.061,0-103.463,46.701-103.463,104.2c0,57.479,46.402,104.16,103.463,104.16
		c39.887,0,74.454-22.553,91.728-55.985l18.469,42.816c-26.14,32.157-65.807,52.379-110.217,52.379
		C63.775,382.482,0,318.408,0,239.112C0,159.936,63.775,95.683,142.453,95.683c59.332,0,107.348,31.858,131.675,88.5
		c1.873,4.423,25.701,60.687,46.661,108.583c12.97,29.547,23.888,49.171,59.671,50.486c35.085,1.295,59.053-20.222,59.053-47.577
		c0-26.598-18.29-32.814-49.211-43.154c-55.885-18.569-84.555-37.058-84.555-81.627c0-43.393,29.407-72.342,77.044-72.342
		c30.921,0,53.375,13.946,68.816,41.6l-30.423,15.779c-11.356-16.278-24.187-22.613-40.206-22.613
		c-22.374,0-38.293,15.66-38.293,36.5c0,29.626,26.219,34.069,63.038,46.183c49.51,16.297,72.442,34.727,72.442,80.989
		C478.165,345.603,436.704,381.008,382.811,380.948z"/>
</g>
<g>
</g>
<g>
</g>
<g>
</g>
<g>
</g>
<g>
</g>
<g>
</g>
<g>
</g>
<g>
</g>
<g>
</g>
<g>
</g>
<g>
</g>
<g>
</g>
<g>
</g>
<g>
</g>
<g>
</g>
</svg>
