<?xml version="1.0" encoding="iso-8859-1"?>
<!-- Generator: Adobe Illustrator 18.1.1, SVG Export Plug-In . SVG Version: 6.00 Build 0)  -->
<svg version="1.1" id="Capa_1" xmlns="http://www.w3.org/2000/svg" xmlns:xlink="http://www.w3.org/1999/xlink" x="0px" y="0px"
	 viewBox="0 0 478.165 478.165" style="enable-background:new 0 0 478.165 478.165;" xml:space="preserve">
<g>
	<path id="Meetup_3_" d="M218.481,246.085c-1.614,0-3.248-0.179-4.403-1.853c0.279-6.316,2.371-11.018,4.423-15.62
		c0.897-1.952,1.693-4.025,2.55-6.296l0.797-2.59l0.837,2.59c1.693,6.196,1.056,17.612-1.574,23.729L218.481,246.085z
		 M418.255,206.139l-0.837,0.717c-13.628,12.871-18.688,34.767-22.255,54.192c11.496-3.168,21.219-13.628,25.243-25.243
		c2.67-7.033,4.443-17.792-1.634-28.77L418.255,206.139z M168.633,241.184c0.697,0.279,1.574,0.657,2.73,0.657l0.538-0.179
		l1.375-0.558c1.116-5.32,0.717-12.054-0.916-18.628c-4.204,4.682-6.754,10.261-7.71,17.333l-0.08,1.096l2.092-0.179
		C167.417,240.746,168.055,240.965,168.633,241.184z M478.165,365.527c0,9.384-7.591,16.955-17.154,16.955H17.035
		C7.651,382.462,0,374.891,0,365.527v-252.79c0-9.484,7.651-17.055,17.035-17.055h443.936c9.603-0.02,17.194,7.571,17.194,17.055
		V365.527z M143.589,272.604c-4.702-13.07-7.77-27.913-10.759-42.397c-3.766-18.648-7.71-37.556-14.445-52.299
		c-0.757,0.06-1.634,0.757-2.331,0.757c-2.371,0-4.443,0.638-6.515,0.239c-1.913-0.279-3.825,1.733-6.136,1.733
		c-0.219,0-0.478,0-0.677,0c-0.657,0-1.156-2.331-1.395-2.53c-10.699,14.325-14.285,33.85-19.127,53.515
		c-2.61-4.642-5.12-9.384-7.491-14.325c-4.244-8.627-8.647-17.433-13.707-24.526c-1.415-0.199-2.809-0.199-4.044-0.199
		c-5.798,0-10.978,1.016-15.839,2.411l-0.279,13.289c-0.478,22.673-0.976,42.417,4.682,60.807c1.096,0.319,2.132,0.359,3.248,0.359
		c6.814,0,12.91-3.307,15.62-4.662c0.339-5.718-0.379-10.32-1.116-15.122c-0.418-2.57-0.737-4.981,0.498-8.248
		c4.084,5.12,7.471,10.799,10.958,16.397c2.271,3.666,4.463,7.312,6.216,10.3c1.156,0.1,2.172,0.319,3.287,0.319
		c2.63,0,4.981-0.379,7.312-0.757c2.51-0.359,4.881-0.558,7.69-0.558l1.594,0.518c3.208-6.993,3.307-17.274,3.487-27.176
		c0.219-9.264,0.299-18.688,4.443-25.801c4.443,20.481,10.48,40.285,18.449,60.787c2.809-0.398,5.838-1.335,8.707-2.192
		c2.231-0.598,4.144-1.395,5.618-1.395C142.374,271.807,143.071,272.185,143.589,272.604z M198.638,276.847
		c-1.614-2.809-3.726-4.104-6.933-4.104c-2.351,0-5.12,0.757-7.73,1.375c-2.769,0.837-5.559,1.415-7.969,1.415
		c-0.677,0-1.375-0.1-2.012-0.179c-3.028-0.717-5.399-2.61-7.093-5.08c-3.228-4.722-4.005-12.592-1.156-22.055
		c4.622,1.235,10.36,1.514,16.776,1.514c0.518,0,1.016,0,1.514,0c1.654,0,3.168,0.498,4.124,0.877
		c3.068-12.671,1.434-30.005-1.116-39.967c-1.853-0.359-3.566-1.016-5.379-1.693c-3.028-0.976-5.858-2.052-9.643-2.052
		c-0.677,0-1.375,0-2.072,0c-12.293,1.753-20.541,18.868-22.394,34.926c-1.813,14.903,1.415,32.675,15.62,38.193
		c2.889,1.056,6.575,1.594,10.779,1.594C182.38,281.629,192.182,279.278,198.638,276.847z M247.032,273.201
		c-0.757-2.49-2.989-3.885-6.296-5.021c-2.789,4.423-7.053,6.814-12.213,6.814c-5.499,0-10.898-2.789-14.166-7.312
		c-3.088-4.264-3.785-9.484-0.996-15.52c4.264,0.936,8.687,1.813,12.651,1.813c3.287,0,6.316-0.498,8.866-0.897
		c-0.777-9.743,0.279-16.556,1.574-23.789c0.976-6.097,1.952-12.353,2.172-19.844c-5.559-4.204-11.456-6.336-18.011-6.993
		c-16.317,12.412-23.809,31.539-23.111,58.137c2.152,11.755,17.752,19.087,30.842,19.087
		C236.313,279.696,243.047,277.007,247.032,273.201z M303.455,236.721c-2.152-1.634-3.746-3.507-5.539-5.539
		c-3.267-3.526-6.395-7.013-11.237-8.388c-1.016,0.02-1.315,0.857-1.355,3.188c-0.1,1.833-0.359,4.662-3.148,4.662h-1.952
		l0.08-0.677c0.777-8.248,0.259-17.772-0.578-28.291c-0.897-14.943-1.873-28.949,0.877-41.56c-3.267-3.965-8.308-6.057-18.091-6.057
		c-0.1,0-0.12,0-0.418,0c-0.638,0-1.474-2.51-1.594-2.989c-5.061,15.401-2.69,32.236-0.339,50.666
		c1.375,10.54,2.71,20.322,1.195,29.865c-1.873,0-3.985-0.239-5.877-0.438c-1.554-0.06-3.307-0.259-4.742-0.259
		c-2.789,0-4.423,0.478-5.539,1.634c-1.056,1.195-1.434,3.467-1.415,6.037c3.905,2.61,10.599,2.829,16.915,3.028l4.084,0.797
		c0.339,5.638,0.578,11.058,1.036,16.337c0.777,7.91,1.315,15.939,1.235,24.984c1.594-0.339,3.248-0.359,4.702-0.418
		c2.849-0.319,5.579-0.398,8.567-0.817c-0.08-6.216-0.219-12.193-0.558-18.091c-0.339-7.969-0.518-15.54,0.339-23.908
		c2.809-0.737,6.196-0.936,9.484-1.036C295.127,239.092,300.785,238.833,303.455,236.721z M362.748,226.72
		c-4.084-3.287-8.906-8.886-14.524-8.886c-0.657,0-0.936,0-1.335,0c-0.757,0-1.235,1.574-1.395,1.235l-0.08,5.957
		c-0.438,16.138-0.956,38.393-16.556,43.931c-1.474-9.743-1.873-20.342-2.092-29.845c-0.319-5.081-0.418-9.583-0.319-12.831
		c-1.474-0.717-2.889-1.474-4.284-2.331c-3.746-2.311-7.431-4.443-13.15-5.2c-2.331,27.773,0.279,46.083,8.109,54.531
		c3.248,3.646,7.412,5.439,12.492,5.439c3.367,0,7.412-0.897,11.217-2.311l1.494-2.311c2.809-4.264,4.602-7.053,8.846-10.32
		c0.996-1.833,2.231-4.204,3.267-6.057C359.6,249.632,364.322,240.905,362.748,226.72z M437.182,200.56
		c-8.467-4.961-15.879-7.312-22.573-7.312c-8.408,0-15.779,3.766-22.334,11.516c-12.293,14.684-14.943,45.206-16.815,60.508
		c-0.837,0.398-1.494,0.757-2.331,0.857c-2.251,0.538-4.244,1.315-5.021,2.311c6.515,7.551,7.85,20.282,9.165,32.774
		c0.996,9.464,1.933,19.505,4.682,26.16c1.514,0.398,3.746,0.478,6.635,0.478c1.375,0,2.869-0.06,4.264-0.06
		c2.59,0,4.981,0.12,6.854,0.837c-4.562-11.536-6.336-26.957-4.981-49.45c18.489-4.503,34.886-17.573,42.836-34.209
		C442.223,234.869,445.988,218.93,437.182,200.56z"/>
</g>
<g>
</g>
<g>
</g>
<g>
</g>
<g>
</g>
<g>
</g>
<g>
</g>
<g>
</g>
<g>
</g>
<g>
</g>
<g>
</g>
<g>
</g>
<g>
</g>
<g>
</g>
<g>
</g>
<g>
</g>
</svg>
