<?xml version="1.0" encoding="iso-8859-1"?>
<!-- Generator: Adobe Illustrator 18.1.1, SVG Export Plug-In . SVG Version: 6.00 Build 0)  -->
<svg version="1.1" id="Capa_1" xmlns="http://www.w3.org/2000/svg" xmlns:xlink="http://www.w3.org/1999/xlink" x="0px" y="0px"
	 viewBox="0 0 478.165 478.165" style="enable-background:new 0 0 478.165 478.165;" xml:space="preserve">
<g>
	<path id="Metacafe_3_" d="M434.771,478.165L364.66,427.32l-70.071,50.845l26.698-82.185l-70.111-50.825h86.767l26.717-82.185
		l26.698,82.185h86.807l-70.111,50.825L434.771,478.165L434.771,478.165z M301.184,402.495
		C286.281,391.776,198.478,328.2,198.478,328.2s108.743,0,126.953,0c5.638-17.333,39.229-120.418,39.229-120.418
		S398.271,310.867,403.89,328.2c8.866,0,39.15,0,67.74,0L364.68,0l-86.249,263.947H0l280.085,203.579
		C288.971,439.991,298.395,410.943,301.184,402.495L301.184,402.495z"/>
</g>
<g>
</g>
<g>
</g>
<g>
</g>
<g>
</g>
<g>
</g>
<g>
</g>
<g>
</g>
<g>
</g>
<g>
</g>
<g>
</g>
<g>
</g>
<g>
</g>
<g>
</g>
<g>
</g>
<g>
</g>
</svg>
