<?xml version="1.0" encoding="iso-8859-1"?>
<!-- Generator: Adobe Illustrator 18.1.1, SVG Export Plug-In . SVG Version: 6.00 Build 0)  -->
<svg version="1.1" id="Capa_1" xmlns="http://www.w3.org/2000/svg" xmlns:xlink="http://www.w3.org/1999/xlink" x="0px" y="0px"
	 viewBox="0 0 478.185 478.185" style="enable-background:new 0 0 478.185 478.185;" xml:space="preserve">
<g>
	<path id="Ning" d="M411.341,323.01c0-18.429,14.963-33.073,33.312-33.073c18.589,0,33.531,14.644,33.531,33.073
		c0,18.31-14.943,33.232-33.531,33.232C426.284,356.243,411.341,341.32,411.341,323.01z M444.633,185.618
		c18.589,0,33.531-14.903,33.531-33.173c0-18.369-14.943-33.173-33.531-33.173c-18.33,0-33.312,14.783-33.312,33.173
		C411.341,170.715,426.284,185.618,444.633,185.618z M317.9,192.451c0,18.33,14.943,33.153,33.332,33.153
		c18.589,0,33.551-14.803,33.551-33.153c0-18.27-14.963-33.173-33.551-33.173C332.882,159.279,317.9,174.181,317.9,192.451z
		 M151.977,411.829c-18.489,0-33.452,14.903-33.452,33.153c0.02,18.25,14.963,33.193,33.452,33.193
		c18.429,0,33.412-14.923,33.412-33.153C185.408,426.732,170.426,411.829,151.977,411.829z M284.369,159.279
		c18.569,0,33.531-14.803,33.531-33.153c0-18.25-14.963-33.173-33.531-33.173c-18.37,0-33.472,14.943-33.472,33.173
		C250.917,144.456,266.019,159.279,284.369,159.279z M351.232,250.469c-18.35,0-33.332,14.863-33.332,33.292
		c0,18.31,14.943,32.993,33.332,32.993c18.589,0,33.551-14.684,33.551-32.993C384.783,265.332,369.821,250.469,351.232,250.469z
		 M193.796,316.934c-18.469,0-33.432,14.723-33.432,33.153c0,18.29,14.963,33.153,33.432,33.153
		c18.449,0,33.412-14.863,33.412-33.153C227.208,331.657,212.265,316.934,193.796,316.934z M325.869,411.829
		c-18.589,0-33.551,14.903-33.551,33.153c0,18.27,14.963,33.193,33.551,33.193c18.33,0,33.332-14.923,33.332-33.153
		C359.201,426.732,344.199,411.829,325.869,411.829z M325.869,66.335c18.33,0,33.332-14.783,33.332-33.153
		c0-18.27-15.002-33.173-33.332-33.173c-18.589,0-33.551,14.883-33.551,33.153C292.338,51.532,307.3,66.335,325.869,66.335z
		 M126.853,316.934c18.429,0,33.511-14.863,33.511-33.133c0-18.449-15.082-33.232-33.511-33.232
		c-18.469,0-33.452,14.783-33.452,33.232C93.402,302.071,108.364,316.934,126.853,316.934z M33.472,185.618
		c18.429,0,33.392-14.903,33.392-33.173c0-18.369-14.963-33.173-33.392-33.173C14.963,119.252,0,134.075,0,152.445
		C0,170.755,14.963,185.618,33.472,185.618z M33.472,356.243c18.429,0,33.392-14.923,33.392-33.232
		c0-18.429-14.963-33.133-33.392-33.133C14.982,289.877,0,304.581,0,323.01C0,341.34,14.963,356.243,33.472,356.243z
		 M126.853,225.604c18.429,0,33.511-14.783,33.511-33.153c0-18.29-15.082-33.173-33.511-33.173
		c-18.469,0-33.452,14.883-33.452,33.173C93.402,210.821,108.364,225.604,126.853,225.604z M284.369,383.239
		c18.569,0,33.531-14.863,33.531-33.153c0-18.429-14.963-33.153-33.531-33.153c-18.37,0-33.472,14.723-33.472,33.153
		C250.917,368.376,266.019,383.239,284.369,383.239z M160.345,126.146c0,18.35,14.963,33.153,33.432,33.153
		c18.449,0,33.412-14.803,33.412-33.153c0-18.25-14.943-33.173-33.412-33.173C175.307,92.953,160.345,107.876,160.345,126.146z
		 M151.977,66.335c18.429,0,33.412-14.783,33.412-33.153c0.02-18.27-14.963-33.173-33.412-33.173
		c-18.489,0-33.452,14.903-33.452,33.173C118.545,51.532,133.488,66.335,151.977,66.335z"/>
</g>
<g>
</g>
<g>
</g>
<g>
</g>
<g>
</g>
<g>
</g>
<g>
</g>
<g>
</g>
<g>
</g>
<g>
</g>
<g>
</g>
<g>
</g>
<g>
</g>
<g>
</g>
<g>
</g>
<g>
</g>
</svg>
