<?xml version="1.0" encoding="iso-8859-1"?>
<!-- Generator: Adobe Illustrator 18.1.1, SVG Export Plug-In . SVG Version: 6.00 Build 0)  -->
<svg version="1.1" id="Capa_1" xmlns="http://www.w3.org/2000/svg" xmlns:xlink="http://www.w3.org/1999/xlink" x="0px" y="0px"
	 viewBox="0 0 458.194 458.194" style="enable-background:new 0 0 458.194 458.194;" xml:space="preserve">
<g>
	<path id="Mister_Wong" d="M140.931,217.963c-30.722,32.196-66.545,59.492-99.717,89.357c-6.057-3.168-10.699-7.89-13.887-13.887
		c33.91-28.411,67.003-57.559,99.677-86.986C132.683,209.257,136.827,213.62,140.931,217.963z M321.817,213.421
		c-2.291,4.961-8.527,6.136-10.4,11.516c34.109,30.045,68.816,59.631,105.575,86.986c4.124-3.985,9.344-6.794,11.635-12.651
		C392.306,271.279,359.791,239.6,321.817,213.421z M123.597,72.96c-26.379-0.418-62.879,0.139-96.27,0c0,5.419,0,10.799,0,16.258
		c30.144,2.67,65.25,0.418,97.406,1.175c8.846,69.115,36.241,120.059,99.697,134.484c0,37.436,0,74.932,0,112.508
		c-94.139,7.551-163.512,39.767-185.548,119.521c17.154,2.59,38.95,0.359,57.958,1.016c19.147-53.036,62.4-82.105,127.57-89.237
		c0,29.288,0,58.695,0,88.201c4.523,2.311,13.309,0.478,19.804,1.016c0.578-30.124-1.614-63.317,1.056-91.549
		c75.709,3.925,126.694,32.435,147.295,91.549c12.412,0,24.865,0,37.137,0c-20.74-81.567-93.421-111.492-185.488-121.812
		c0-37.337,0-74.893,0-112.428c59.671-15.939,83.44-67.86,93.78-133.308c30.702,0,61.145,0,91.668,0c2.69-5.3,0.04-11.277,0-17.453
		c-33.531-1.235-58.197,0.837-92.724-1.096c0.04-28.61-5.18-51.961-13.887-71.804c-10.54,0-20.92,0-31.34,0
		c6.236,21.219,15.261,45.824,11.635,73c-36.779-2.291-95.573,3.208-139.186-2.291c0.06-27.753,7.053-48.593,12.791-70.709
		c-12.751,0-25.502,0-38.273,0C127.941,17.991,125.41,49.928,123.597,72.96z M167.628,90.413c45.286,0,90.493,0,135.739,0
		c-4.044,42.417-19.346,94.836-56.782,104.379c-8.986,2.271-17.453,2.231-25.562,0c-35.982-9.763-49.889-59.432-55.686-100.873
		C165.297,91.927,166.154,90.891,167.628,90.413z"/>
</g>
<g>
</g>
<g>
</g>
<g>
</g>
<g>
</g>
<g>
</g>
<g>
</g>
<g>
</g>
<g>
</g>
<g>
</g>
<g>
</g>
<g>
</g>
<g>
</g>
<g>
</g>
<g>
</g>
<g>
</g>
</svg>
