<?xml version="1.0" encoding="iso-8859-1"?>
<!-- Generator: Adobe Illustrator 18.1.1, SVG Export Plug-In . SVG Version: 6.00 Build 0)  -->
<svg version="1.1" id="Capa_1" xmlns="http://www.w3.org/2000/svg" xmlns:xlink="http://www.w3.org/1999/xlink" x="0px" y="0px"
	 viewBox="0 0 478.165 478.165" style="enable-background:new 0 0 478.165 478.165;" xml:space="preserve">
<g>
	<path id="Newsvine_3_" d="M255.559,308.715l57.34-41.501c5.2,3.208,11.297,5.399,18.11,5.399c18.688,0,33.731-15.281,33.731-33.99
		c0-18.688-15.062-33.85-33.731-33.85c-18.668,0-33.97,15.162-33.97,33.85c0,1.395,0.04,2.809,0.359,4.204l-41.839,30.264v-94.418
		l57.758-41.8c5.18,3.188,11.157,5.081,17.652,5.081c18.688,0,33.77-15.182,33.77-33.91c0-18.668-15.102-33.97-33.77-33.97
		c-18.668,0-33.97,15.301-33.97,33.97c0,1.514,0.08,3.108,0.359,4.702l-41.839,30.204V0h-32.954v75.43l-42.019-30.363
		c0.398-2.052,0.638-4.025,0.638-6.256c0-18.688-15.182-33.85-33.89-33.85c-18.668,0-33.87,15.182-33.87,33.85
		c0,18.708,15.182,33.99,33.87,33.99c5.858,0,11.496-1.574,16.357-4.204l59.033,42.736v94.198l-42.019-30.403
		c0.299-1.833,0.518-3.746,0.518-5.678c0-18.768-15.182-33.95-33.89-33.95c-18.668,0-33.87,15.182-33.87,33.95
		c0,18.589,15.182,33.89,33.87,33.89c6.077,0,11.775-1.654,16.776-4.423l58.595,42.457v100.415l-41.979-30.383
		c0.319-1.793,0.518-3.646,0.518-5.539c0-18.688-15.182-33.731-33.89-33.731c-18.688,0-33.87,15.042-33.87,33.731
		c0,18.688,15.182,33.77,33.87,33.77c6.136,0,11.855-1.614,16.835-4.423l58.535,42.437v100.514h2.65h29.049h1.175v-33.153
		l57.24-41.441c5.2,3.487,11.356,5.399,18.17,5.399c18.688,0,33.75-15.281,33.75-33.97s-15.082-33.731-33.75-33.731
		s-33.95,15.062-33.95,33.731c0,1.395,0.06,2.769,0.339,4.104l-41.839,30.264V308.715H255.559z"/>
</g>
<g>
</g>
<g>
</g>
<g>
</g>
<g>
</g>
<g>
</g>
<g>
</g>
<g>
</g>
<g>
</g>
<g>
</g>
<g>
</g>
<g>
</g>
<g>
</g>
<g>
</g>
<g>
</g>
<g>
</g>
</svg>
