<?xml version="1.0" encoding="iso-8859-1"?>
<!-- Generator: Adobe Illustrator 18.1.1, SVG Export Plug-In . SVG Version: 6.00 Build 0)  -->
<svg version="1.1" id="Capa_1" xmlns="http://www.w3.org/2000/svg" xmlns:xlink="http://www.w3.org/1999/xlink" x="0px" y="0px"
	 viewBox="0 0 478.157 478.157" style="enable-background:new 0 0 478.157 478.157;" xml:space="preserve">
<g>
	<path id="official.fm" d="M416.683,316.629c-25.701-19.684-33.272-139.664-57.539-209.496
		C334.956,37.36,253.23,35.926,241.017,25.287c-12.153-10.679-19.386-21.497-19.386-21.497s-1.056-1.594-2.431-2.451
		c-3.387-3.985-18.19,1.893-18.19,5.061c0,3.606,0,261.596,0,301.084c0,38.652-46.163,23.231-100.773,62.52
		c-41.8,30.304-48.653,65.19-36.281,88.142c10.599,19.645,57.977,35.404,112.09-6.156c47.876-36.859,43.832-85.034,43.832-98.741
		c0-25.721,0-296.781,0-296.781s0-22.294,0-38.393c1.195,1.634,3.347,4.981,7.531,11.695c27.435,43.951-3.128,83.46,31.758,166.959
		C296.882,287.042,442.503,336.353,416.683,316.629z M381.498,287.102c0,0-45.705-55.049-62.998-100.933
		c-14.843-39.449-33.631-87.604-51.203-111.95c-11.197-15.381-21.159-29.447-24.107-34.388c-1.853-3.188,0.638-1.793,0.638-1.793
		s11.894,14.385,25.143,31.001c22.294,27.833,29.467,43.035,53.136,105.495c8.448,22.195,19.585,48.693,30.583,66.644
		c15.222,24.785,25.482,39.249,31.101,46.561C384.486,288.915,381.498,287.102,381.498,287.102z"/>
</g>
<g>
</g>
<g>
</g>
<g>
</g>
<g>
</g>
<g>
</g>
<g>
</g>
<g>
</g>
<g>
</g>
<g>
</g>
<g>
</g>
<g>
</g>
<g>
</g>
<g>
</g>
<g>
</g>
<g>
</g>
</svg>
