<?xml version="1.0" encoding="iso-8859-1"?>
<!-- Generator: Adobe Illustrator 18.1.1, SVG Export Plug-In . SVG Version: 6.00 Build 0)  -->
<svg version="1.1" id="Capa_1" xmlns="http://www.w3.org/2000/svg" xmlns:xlink="http://www.w3.org/1999/xlink" x="0px" y="0px"
	 viewBox="0 0 478.152 478.152" style="enable-background:new 0 0 478.152 478.152;" xml:space="preserve">
<g>
	<path id="Path" d="M118.696,21.078C57.252,45.424,15.453,92.324,3.738,155.542c-7.153,38.911-4.363,81.208,12.711,117.549
		c3.845,8.009,8.388,15.819,13.807,22.932c2.71,3.586,5.539,6.913,8.587,9.902c5.399-1.913,10.739-4.323,15.799-7.113
		c20.76-11.675,36.062-29.845,53.933-44.928c-59.492-68.975,3.546-154.387,82.444-173.494
		c73.358-17.732,173.056,12.831,195.171,88.401c9.284,31.28,3.248,65.867-22.334,88.54c-13.229,11.934-30.304,19.625-48.155,22.892
		c-10.36,1.813-21.139,2.231-31.778,1.235c-5.718-0.777-11.695-1.693-17.393-3.048c-9.802-2.311-18.549-1.933-18.549-12.392
		c0-27.594,0-55.148,0-82.722c0-13.727,0-27.514,0-41.321c0-8.408,0.877-6.854-6.156-7.71c-5.579-0.657-11.097-1.175-16.576-1.594
		c-19.545-1.534-39.887-2.59-59.233,0.697c-7.232,1.315-7.69,0.02-7.69,7.93c0,6.395,0,12.731,0,19.087c0,15.441,0,30.842,0,46.282
		c0,46.083,3.487,92.744,1.614,138.847c-0.618,13.847-0.936,46.721-16.317,53.574c-17.792,7.69-33.571-8.826-49.968-12.372
		c2.192,23.171-12.213,68.995,14.723,80.67c24.705,10.719,53.156,14.783,79.136,5.917c54.61-18.569,72.223-79.296,65.429-129.204
		c84.197,25.183,175.208-16.955,211.209-93.043c25.642-54.212,14.883-121.514-23.809-167.637
		C367.98-2.93,221.123-19.506,118.696,21.078z"/>
</g>
<g>
</g>
<g>
</g>
<g>
</g>
<g>
</g>
<g>
</g>
<g>
</g>
<g>
</g>
<g>
</g>
<g>
</g>
<g>
</g>
<g>
</g>
<g>
</g>
<g>
</g>
<g>
</g>
<g>
</g>
</svg>
