<?xml version="1.0" encoding="iso-8859-1"?>
<!-- Generator: Adobe Illustrator 18.1.1, SVG Export Plug-In . SVG Version: 6.00 Build 0)  -->
<svg version="1.1" id="Capa_1" xmlns="http://www.w3.org/2000/svg" xmlns:xlink="http://www.w3.org/1999/xlink" x="0px" y="0px"
	 viewBox="0 0 478.138 478.138" style="enable-background:new 0 0 478.138 478.138;" xml:space="preserve">
<g>
	<path id="Qik_2_" d="M346.823,478.138c0.777,0,1.713,0,2.53,0c20.999,0,42.039,0,63.018,0
		c8.766-55.985,16.238-105.874,24.227-155.742c8.189-51.243,21.756-101.53,25.94-154.487
		C470.707,62.533,407.709,7.504,309.088,0.969c-107.906-7.352-181.185,27.993-229.2,76.486
		c-36.739,36.819-61.524,81.965-64.751,141.895c-5.041,95.772,67.361,169.111,192.182,158.81c14.186-1.275,28.67-5.2,41.899-11.237
		c19.645-8.627,32.874-23.749,48.593-33.392C285.936,389.239,264.598,477.281,346.823,478.138z M279.92,265.315
		c-19.505,14.006-64.652,21.956-93.601,4.284c-51.223-31.579-19.684-130.738,17.732-158.751c10.36-7.79,23.43-13.389,42.059-15.381
		c14.943-1.514,41.122,1.614,53.335,9.882C343.256,135.094,321.52,235.788,279.92,265.315z"/>
</g>
<g>
</g>
<g>
</g>
<g>
</g>
<g>
</g>
<g>
</g>
<g>
</g>
<g>
</g>
<g>
</g>
<g>
</g>
<g>
</g>
<g>
</g>
<g>
</g>
<g>
</g>
<g>
</g>
<g>
</g>
</svg>
