<?xml version="1.0" encoding="iso-8859-1"?>
<!-- Generator: Adobe Illustrator 18.1.1, SVG Export Plug-In . SVG Version: 6.00 Build 0)  -->
<svg version="1.1" id="Capa_1" xmlns="http://www.w3.org/2000/svg" xmlns:xlink="http://www.w3.org/1999/xlink" x="0px" y="0px"
	 viewBox="0 0 478.165 478.165" style="enable-background:new 0 0 478.165 478.165;" xml:space="preserve">
<g>
	<path id="iTunes_3_" d="M239.082,0C107.009,0,0,107.009,0,239.082c0,132.093,107.009,239.082,239.082,239.082
		c132.113,0,239.082-106.989,239.082-239.082C478.165,107.009,371.195,0,239.082,0z M239.082,430.428
		c-105.555,0-191.246-85.771-191.246-191.346c0-105.595,85.671-191.246,191.246-191.246c105.595,0,191.346,85.651,191.346,191.246
		C430.428,344.657,344.677,430.428,239.082,430.428z M326.746,303.117c1.474,20.442-13.847,38.851-34.288,41.501
		c-20.262,2.391-38.094-11.994-39.688-32.216c-1.514-20.442,13.847-38.851,34.288-41.501c6.296-0.837,12.612,0.1,17.971,2.331
		v-99.817l-95.593,17.792v124.821h-0.219c0.02,0.239,0.199,0.578,0.199,1.016c1.574,20.262-13.747,38.791-34.109,41.282
		c-20.461,2.61-38.114-11.835-39.688-32.216c-1.594-20.282,13.727-38.851,34.089-41.282c6.495-0.857,12.612,0.08,18.071,2.331
		V143.35v-0.04l138.728-23.709l0.239-0.06l0,0h0.06l-0.06,0.657V302.16h-0.299C326.527,302.539,326.706,302.698,326.746,303.117z"/>
</g>
<g>
</g>
<g>
</g>
<g>
</g>
<g>
</g>
<g>
</g>
<g>
</g>
<g>
</g>
<g>
</g>
<g>
</g>
<g>
</g>
<g>
</g>
<g>
</g>
<g>
</g>
<g>
</g>
<g>
</g>
</svg>
