<?xml version="1.0" encoding="iso-8859-1"?>
<!-- Generator: Adobe Illustrator 18.1.1, SVG Export Plug-In . SVG Version: 6.00 Build 0)  -->
<svg version="1.1" id="Capa_1" xmlns="http://www.w3.org/2000/svg" xmlns:xlink="http://www.w3.org/1999/xlink" x="0px" y="0px"
	 viewBox="0 0 478.185 478.185" style="enable-background:new 0 0 478.185 478.185;" xml:space="preserve">
<g>
	<path id="Rdio_2_" d="M413.114,211.478c1.375,9.065,2.032,18.23,2.032,27.574c0,110.137-92.923,199.275-207.583,199.275
		S0,349.15,0,239.052C-0.02,129.035,92.903,39.857,207.543,39.857c22.454,0,44.111,3.467,64.293,9.802l0.04,120.358
		c0,0-61.763-33.85-117.051,5.838c-55.308,39.767-44.828,81.447-44.828,81.447s2.57,65.788,80.551,65.788
		c87.305,0,112.03-79.535,112.03-79.535V61.873c16.815,8.348,32.356,18.788,47.498,30.503c37.038,22.912,75.67,37.695,119.74,36.639
		c0,0,8.368-1.833,8.368,14.943c0,9.125-3.287,19.505-12.293,29.268C465.892,173.285,448.419,199.205,413.114,211.478"/>
</g>
<g>
</g>
<g>
</g>
<g>
</g>
<g>
</g>
<g>
</g>
<g>
</g>
<g>
</g>
<g>
</g>
<g>
</g>
<g>
</g>
<g>
</g>
<g>
</g>
<g>
</g>
<g>
</g>
<g>
</g>
</svg>
