<?xml version="1.0" encoding="iso-8859-1"?>
<!-- Generator: Adobe Illustrator 18.1.1, SVG Export Plug-In . SVG Version: 6.00 Build 0)  -->
<svg version="1.1" id="Capa_1" xmlns="http://www.w3.org/2000/svg" xmlns:xlink="http://www.w3.org/1999/xlink" x="0px" y="0px"
	 viewBox="0 0 478.165 478.165" style="enable-background:new 0 0 478.165 478.165;" xml:space="preserve">
<g>
	<path id="Grooveshark_3_" d="M239.082,0C106.989,0,0,106.969,0,239.082c0,132.093,106.989,239.082,239.082,239.082
		s239.082-106.989,239.082-239.082C478.165,106.969,371.175,0,239.082,0z M367.908,312.74c-18.529,0-36.839-36.839-36.839-36.839
		s-26.18-91.987-147.115-110.416c10.579,165.525-50.626,145.561-73.578,147.235c-23.052,1.494-36.38-31.977-36.38-73.637
		c0-91.11,73.956-165.086,165.086-165.086c91.09,0,162.935,73.976,165.186,165.086C404.507,257.352,386.178,312.74,367.908,312.74z"
		/>
</g>
<g>
</g>
<g>
</g>
<g>
</g>
<g>
</g>
<g>
</g>
<g>
</g>
<g>
</g>
<g>
</g>
<g>
</g>
<g>
</g>
<g>
</g>
<g>
</g>
<g>
</g>
<g>
</g>
<g>
</g>
</svg>
