<?xml version="1.0" encoding="iso-8859-1"?>
<!-- Generator: Adobe Illustrator 18.1.1, SVG Export Plug-In . SVG Version: 6.00 Build 0)  -->
<svg version="1.1" id="Capa_1" xmlns="http://www.w3.org/2000/svg" xmlns:xlink="http://www.w3.org/1999/xlink" x="0px" y="0px"
	 viewBox="0 0 478.165 478.165" style="enable-background:new 0 0 478.165 478.165;" xml:space="preserve">
<g>
	<path id="SmugMug_2_" d="M193.338,35.862c0,19.724-20.76,35.822-46.223,35.822c-25.482,0-46.223-16.098-46.223-35.822
		C100.893,16.078,121.633,0,147.115,0S193.338,16.078,193.338,35.862z M355.037,0c-25.402,0-46.043,16.078-46.043,35.862
		c0,19.724,20.621,35.822,46.043,35.822c25.562,0,46.242-16.098,46.242-35.822C401.339,16.078,380.619,0,355.037,0z M478.165,182.34
		c0,35.245-78.977,295.825-282.137,295.825c-203.12,0-225.753-190.987-169.33-308.795c11.317-23.47,22.573-25.96,22.573-25.96
		h394.984C444.275,143.41,478.165,146.956,478.165,182.34z M430.169,191.246H67.959C44.111,239.082,34.308,315.728,66.345,369.9
		c29.626,49.968,86.847,60.528,129.603,60.528C350.116,430.468,418.812,239.082,430.169,191.246z"/>
</g>
<g>
</g>
<g>
</g>
<g>
</g>
<g>
</g>
<g>
</g>
<g>
</g>
<g>
</g>
<g>
</g>
<g>
</g>
<g>
</g>
<g>
</g>
<g>
</g>
<g>
</g>
<g>
</g>
<g>
</g>
</svg>
