<?xml version="1.0" encoding="iso-8859-1"?>
<!-- Generator: Adobe Illustrator 18.1.1, SVG Export Plug-In . SVG Version: 6.00 Build 0)  -->
<svg version="1.1" id="Capa_1" xmlns="http://www.w3.org/2000/svg" xmlns:xlink="http://www.w3.org/1999/xlink" x="0px" y="0px"
	 viewBox="0 0 478.165 478.165" style="enable-background:new 0 0 478.165 478.165;" xml:space="preserve">
<g>
	<path id="Identi.ca" d="M0,226.132c-0.06,117.489,97.346,212.664,217.864,212.405c34.428-0.02,67.043-7.93,95.992-21.657
		l164.309,48.056l-53.634-170.944c7.471-21.398,11.675-44.37,11.675-68.238c0.06-117.449-97.247-212.544-217.844-212.524
		C97.864,13.289,0.179,108.543,0,226.132z M366.095,225.893c-0.02,17.971-3.646,35.085-9.802,50.964l27.614,77.084l0,0v0.06
		l2.63,6.913l0.02-0.02l9.484,25.183l-34.707-8.766l0,0l-74.972-23.49c-20.541,10.4-43.692,16.417-68.457,16.417
		c-81.587,0.02-147.813-64.473-147.673-144.266c0.04-79.694,66.365-144.326,148.092-144.346
		C299.909,81.467,366.155,146.119,366.095,225.893z"/>
</g>
<g>
</g>
<g>
</g>
<g>
</g>
<g>
</g>
<g>
</g>
<g>
</g>
<g>
</g>
<g>
</g>
<g>
</g>
<g>
</g>
<g>
</g>
<g>
</g>
<g>
</g>
<g>
</g>
<g>
</g>
</svg>
