<?xml version="1.0" encoding="iso-8859-1"?>
<!-- Generator: Adobe Illustrator 18.1.1, SVG Export Plug-In . SVG Version: 6.00 Build 0)  -->
<svg version="1.1" id="Capa_1" xmlns="http://www.w3.org/2000/svg" xmlns:xlink="http://www.w3.org/1999/xlink" x="0px" y="0px"
	 viewBox="0 0 478.145 478.145" style="enable-background:new 0 0 478.145 478.145;" xml:space="preserve">
<g>
	<path id="Hype_Machine_3_" d="M239.082,42.497C106.989,42.497,0,122.848,0,222.028c0,53.355,31.021,101.132,80.132,134.125
		c-4.443,24.924-12.93,55.188-29.228,79.495c21.179,0,74.275-24.705,111.99-43.533c23.908,6.077,49.53,9.384,76.168,9.384
		c132.093,0,239.082-80.352,239.082-179.471C478.165,122.848,371.175,42.497,239.082,42.497z M353.483,224.558
		c-0.877,3.327-2.291,7.033-4.622,10.958c-4.284,8.169-10.241,15.321-17.194,21.298c-33.372,35.125-92.624,74.653-92.624,74.653
		s-59.272-39.568-92.883-74.653c-6.973-5.977-12.811-13.11-17.055-21.298c-2.351-3.925-3.905-7.631-4.662-10.958
		c-2.371-7.172-3.706-14.704-3.706-22.673c0-39.867,32.176-72.083,71.824-72.083c26.638,0,46.302,28.77,46.302,48.036
		c0-19.266,10.022-48.036,46.482-48.036c39.688,0,71.864,32.216,71.864,72.083C357.209,209.855,355.854,217.406,353.483,224.558z"/>
</g>
<g>
</g>
<g>
</g>
<g>
</g>
<g>
</g>
<g>
</g>
<g>
</g>
<g>
</g>
<g>
</g>
<g>
</g>
<g>
</g>
<g>
</g>
<g>
</g>
<g>
</g>
<g>
</g>
<g>
</g>
</svg>
