<?xml version="1.0" encoding="iso-8859-1"?>
<!-- Generator: Adobe Illustrator 18.1.1, SVG Export Plug-In . SVG Version: 6.00 Build 0)  -->
<svg version="1.1" id="Capa_1" xmlns="http://www.w3.org/2000/svg" xmlns:xlink="http://www.w3.org/1999/xlink" x="0px" y="0px"
	 viewBox="0 0 478.19 478.19" style="enable-background:new 0 0 478.19 478.19;" xml:space="preserve">
<g>
	<path id="Squarespace" d="M79.161,219.472L222.75,75.006c35.982-36.181,94.358-36.181,130.519,0
		c8.607,9.125,8.189,23.829-0.717,32.754c-8.966,9.065-23.57,9.065-32.695,0l-2.112-2.51c-18.071-15.481-45.386-14.564-62.381,2.55
		L108.588,255.434c-9.643,8.966-24.267,8.966-33.252-0.06c-9.045-9.025-9.045-23.729,0-32.854
		C76.511,221.365,77.786,220.368,79.161,219.472z M401.484,222.5c-8.986-9.025-23.669-9.025-32.635,0
		c-1.215,1.335-2.311,2.57-3.108,3.945L222.75,370.253c-17.991,18.15-47.199,18.15-65.17,0l-0.677-0.04
		c-9.065-9.145-23.669-9.145-32.615,0c-8.966,8.966-9.005,23.769,0,32.774c1.116,1.215,2.351,2.271,3.686,3.148
		c36.201,33.193,92.425,32.236,127.451-2.989l146.139-147.773C410.489,246.329,410.489,231.625,401.484,222.5z M177.006,317.874
		c-1.355,0.976-2.63,1.913-3.785,3.008c-9.065,9.165-9.065,23.749,0,32.934c8.946,8.986,23.589,8.986,33.232,0.06l146.836-147.713
		c17.931-18.071,47.259-18.071,65.15,0c18.13,18.15,18.13,47.458,0,65.648l-139.126,140.72c18.111,18.011,47.159,18.011,65.289,0
		l106.571-107.786c36.022-36.34,36.022-95.115,0-131.356c-36.042-36.281-94.418-36.281-130.419,0L177.006,317.874z M157.5,304.585
		L303.58,156.892c9.165-9.065,9.165-23.769,0-32.834c-8.966-9.045-23.49-9.045-32.655,0c-1.076,1.175-2.072,2.51-2.989,3.925
		L124.906,271.831c-18.051,18.111-47.259,18.111-65.269,0c-18.011-18.19-18.011-47.478,0-65.648l139.206-140.66
		c-18.111-18.091-47.318-18.091-65.269,0L27.001,173.429C-9,209.63-9,268.424,27.001,304.784
		C63.023,340.906,121.479,340.906,157.5,304.585z"/>
</g>
<g>
</g>
<g>
</g>
<g>
</g>
<g>
</g>
<g>
</g>
<g>
</g>
<g>
</g>
<g>
</g>
<g>
</g>
<g>
</g>
<g>
</g>
<g>
</g>
<g>
</g>
<g>
</g>
<g>
</g>
</svg>
