<?xml version="1.0" encoding="iso-8859-1"?>
<!-- Generator: Adobe Illustrator 18.1.1, SVG Export Plug-In . SVG Version: 6.00 Build 0)  -->
<svg version="1.1" id="Capa_1" xmlns="http://www.w3.org/2000/svg" xmlns:xlink="http://www.w3.org/1999/xlink" x="0px" y="0px"
	 viewBox="0 0 478.161 478.161" style="enable-background:new 0 0 478.161 478.161;" xml:space="preserve">
<g>
	<path id="Squidoo_2_" d="M414.186,380.26c-6.136,20.78-25.94,33.212-43.991,27.813c-18.071-5.359-27.554-26.618-21.338-47.557
		c6.196-20.78,25.741-33.213,43.832-27.853C410.759,338.042,420.442,359.5,414.186,380.26z M338.018,477.388
		c-44.589-4.921-77.423-42.417-85.332-85.611c-5.001-26.976,0.598-46.8-17.154-53.435c-31.121-11.835-71.844,8.966-111.153,4.323
		c-36.002-4.642-62.899-31.798-64.014-77.164c-1.096-41.68,29.327-98.602-12.95-117.808c18.011,3.726,32.814,7.71,40.704,23.47
		c16.796,33.95-9.703,99.618,19.206,117.788c14.186,8.906,39.967,4.423,57.639,2.212c20.262-2.63,34.348-8.926,53.395-8.467
		c-11.058-15.341-28.451-18.868-40.584-27.813c-14.544-10.998-35.145-30.603-44.828-49.351
		c-16.776-32.834-13.887-91.967-38.393-113.405C75.845,75.809,44.764,75.391,13.205,81.368c21.896-18.35,77.602-21.577,98.343-6.395
		c28.012,20.342,22.015,77.403,46.98,107.009c11.277,13.409,28.052,18.529,40.604,23.57c14.325,5.718,29.766,11.277,51.283,12.851
		c16.297-70.808-38.532-80.491-72.681-111.253C152.391,84.018,135.436,56.862,139.361,0c5.479,29.726,11.217,54.033,31.997,70.729
		c14.106,11.117,33.711,14.664,49.191,23.45c37.157,21.199,71.067,55.587,81.149,107.049c8.029-4.483,13.747-15.52,21.298-25.642
		c7.431-9.882,16.776-18.33,17.114-32.176c0.478-19.684-13.349-35.324-25.582-44.868c-29.666-23.51-84.496-17.553-72.621-81.368
		c5.3,15.859,6.435,33.591,19.206,42.796c18.19,13.09,47.159,13.09,68.397,25.662c18.648,11.058,47.179,35.703,47.039,68.537
		c-0.279,37.038-36.998,51.682-21.478,94.218c36.978,10.121,55.467,10.978,74.912,27.833
		C505.994,342.326,450.287,490.119,338.018,477.388z M440.625,389.027c14.325-48.813-7.93-98.641-50.506-111.233
		c-42.158-12.731-88.381,16.437-102.945,65.369c-14.524,48.633,7.969,98.482,50.327,111.233
		C379.838,467.087,426.06,437.68,440.625,389.027z"/>
</g>
<g>
</g>
<g>
</g>
<g>
</g>
<g>
</g>
<g>
</g>
<g>
</g>
<g>
</g>
<g>
</g>
<g>
</g>
<g>
</g>
<g>
</g>
<g>
</g>
<g>
</g>
<g>
</g>
<g>
</g>
</svg>
