<?xml version="1.0" encoding="iso-8859-1"?>
<!-- Generator: Adobe Illustrator 18.1.1, SVG Export Plug-In . SVG Version: 6.00 Build 0)  -->
<svg version="1.1" id="Capa_1" xmlns="http://www.w3.org/2000/svg" xmlns:xlink="http://www.w3.org/1999/xlink" x="0px" y="0px"
	 viewBox="0 0 478.165 478.165" style="enable-background:new 0 0 478.165 478.165;" xml:space="preserve">
<g>
	<path id="StumbleUpon_2_" d="M478.165,369.801c0,45.206-36.799,81.766-81.786,81.766H382.91c-45.246,0-81.766-36.819-81.766-81.766
		V267.673c0-15.62-12.213-29.248-28.072-29.248H162.257c-15.859,0-29.447,12.632-29.447,27.235c0,15.082,13.807,28.59,30.085,29.467
		l16.835,0.936c44.828,2.311,79.993,38.253,78.837,79.993c-1.654,41.839-38.97,75.55-83.679,75.55H0v-53.156h174.909
		c16.058,0,30.045-10.918,30.483-23.968c0.339-12.99-12.572-24.586-28.431-25.522l-16.835-0.677
		c-44.33-2.291-80.372-39.469-80.372-82.603c0-44.051,36.699-79.754,81.806-79.754h110.695c45.226,0,82.025,36.799,82.025,81.786
		v102.108c0,15.819,12.771,28.59,28.57,28.59h13.508c15.859,0,28.63-12.771,28.63-28.59V26.558h47.179
		c2.212,0,4.064,0.458,5.997,0.538V369.801L478.165,369.801z"/>
</g>
<g>
</g>
<g>
</g>
<g>
</g>
<g>
</g>
<g>
</g>
<g>
</g>
<g>
</g>
<g>
</g>
<g>
</g>
<g>
</g>
<g>
</g>
<g>
</g>
<g>
</g>
<g>
</g>
<g>
</g>
</svg>
