<?xml version="1.0" encoding="iso-8859-1"?>
<!-- Generator: Adobe Illustrator 18.1.1, SVG Export Plug-In . SVG Version: 6.00 Build 0)  -->
<svg version="1.1" id="Capa_1" xmlns="http://www.w3.org/2000/svg" xmlns:xlink="http://www.w3.org/1999/xlink" x="0px" y="0px"
	 viewBox="0 0 478.165 478.165" style="enable-background:new 0 0 478.165 478.165;" xml:space="preserve">
<g>
	<path id="Viddler_2_" d="M362.708,269.346c63.735,0,115.457-52.299,115.457-116.812c0-64.393-51.721-116.692-115.457-116.692
		c-58.017,0-105.913,43.234-114.102,99.598h-3.766c-8.189-56.344-56.184-99.578-114.142-99.578
		c-63.755,0-115.497,52.299-115.497,116.692c0,63.915,50.805,115.776,113.723,116.692v0.1h3.487v39.767L0,272.813v155.284
		l132.432-40.265v54.491h194.593l-57.061-173.016h92.525C362.529,269.346,362.648,269.346,362.708,269.346z M130.698,185.528
		c-18.071,0-32.655-14.704-32.655-32.973c0-18.19,14.584-32.993,32.655-32.993c17.971,0,32.555,14.803,32.555,32.973
		C163.253,170.824,148.669,185.528,130.698,185.528z M332.484,152.554c0-18.19,14.524-32.993,32.555-32.993
		c18.051,0,32.615,14.823,32.615,32.973c0,18.27-14.544,33.053-32.615,33.053C347.008,185.608,332.484,170.824,332.484,152.554z"/>
</g>
<g>
</g>
<g>
</g>
<g>
</g>
<g>
</g>
<g>
</g>
<g>
</g>
<g>
</g>
<g>
</g>
<g>
</g>
<g>
</g>
<g>
</g>
<g>
</g>
<g>
</g>
<g>
</g>
<g>
</g>
</svg>
